<?xml version="1.0" encoding="UTF-8" standalone="no"?>
<!-- Created with Inkscape (http://www.inkscape.org/) -->

<svg
   width="80mm"
   height="80mm"
   viewBox="0 0 80 80"
   version="1.1"
   id="svg1"
   sodipodi:docname="sealang.svg"
   inkscape:version="1.3.2 (091e20ef0f, 2023-11-25, custom)"
   inkscape:export-filename="sealang_icon.png"
   inkscape:export-xdpi="96"
   inkscape:export-ydpi="96"
   xmlns:inkscape="http://www.inkscape.org/namespaces/inkscape"
   xmlns:sodipodi="http://sodipodi.sourceforge.net/DTD/sodipodi-0.dtd"
   xmlns="http://www.w3.org/2000/svg"
   xmlns:svg="http://www.w3.org/2000/svg">
  <sodipodi:namedview
     id="namedview1"
     pagecolor="#505050"
     bordercolor="#ffffff"
     borderopacity="1"
     inkscape:showpageshadow="0"
     inkscape:pageopacity="0"
     inkscape:pagecheckerboard="1"
     inkscape:deskcolor="#d1d1d1"
     inkscape:document-units="mm"
     inkscape:zoom="2.1936007"
     inkscape:cx="131.74686"
     inkscape:cy="144.28332"
     inkscape:window-width="1532"
     inkscape:window-height="879"
     inkscape:window-x="1024"
     inkscape:window-y="559"
     inkscape:window-maximized="1"
     inkscape:current-layer="layer2" />
  <defs
     id="defs1">
    <linearGradient
       id="swatch5"
       inkscape:swatch="solid">
      <stop
         style="stop-color:#a8cdd7;stop-opacity:1;"
         offset="0"
         id="stop5" />
    </linearGradient>
    <linearGradient
       id="swatch3">
      <stop
         style="stop-color:#000000;stop-opacity:1;"
         offset="0"
         id="stop3" />
    </linearGradient>
  </defs>
  <g
     inkscape:groupmode="layer"
     id="layer2"
     inkscape:label="canvas"
     style="display:none">
    <circle
       style="display:none;fill:#1a1a1a;stroke-width:6.75784;stroke-opacity:0.99584"
       id="circle1"
       cx="40"
       cy="40"
       r="40"
       inkscape:label="black" />
    <circle
       style="display:inline;fill:#ffffff;stroke-width:6.75784;stroke-opacity:0.99584"
       id="path1"
       cx="40"
       cy="40"
       r="40"
       inkscape:label="white" />
  </g>
  <g
     id="g4793"
     transform="matrix(0.06865406,0,0,0.06865406,-7.7118247,-11.926578)"
     style="display:inline"
     inkscape:label="symbol">
    <path
       style="fill:#a8cdd7"
       d="m 653.99996,1032.4507 c -27.58035,-2.2456 -50.89911,-5.349 -59.66666,-7.9407 -3.7256,-1.1013 -2.70625,-4.3898 2,-6.4521 2.38333,-1.0444 13.03333,-5.3118 23.66666,-9.4832 36.7186,-14.40419 74.82531,-34.78989 98.7344,-52.81927 15.58828,-11.75482 40.57644,-38.28443 51.62196,-54.80639 37.16642,-55.59374 43.81804,-119.06862 18.33676,-174.98361 -15.65065,-34.34309 -53.23145,-73.02218 -95.3688,-98.15594 -5.15134,-3.07263 -9.95435,-6.29543 -10.67335,-7.16177 -0.8703,-1.04865 -0.49022,-4.8742 1.13706,-11.44479 2.20733,-8.91264 2.75628,-9.86251 5.66149,-9.79614 3.74357,0.0855 56.27895,33.06099 75.4508,47.35906 18.97545,14.15159 42.10366,37.77957 52.79964,53.94055 18.21798,27.52627 26.31892,51.6938 28.79,85.88914 0.58572,8.10541 1.3151,14.9851 1.62082,15.28819 0.30573,0.30309 3.85568,0.75323 7.88878,1.00031 l 7.33291,0.44925 0.90159,-6 c 5.19018,-34.53989 -9.89755,-82.19786 -37.31291,-117.86126 -13.40432,-17.43705 -40.54002,-42.54881 -61.25449,-56.68576 -7.0614,-4.81917 -10.19781,-8.11964 -7.71603,-8.11964 2.50036,0 21.00274,8.59138 44.71603,20.7634 9.88321,5.07305 25.0451,16.41352 37.77216,28.25203 5.00803,4.65839 9.50803,8.27105 10,8.02814 3.66364,-1.80888 9.54584,-5.871 9.55274,-6.59692 0.0294,-3.09576 -35.15617,-29.19368 -48.59878,-36.04676 -10.983,-5.59917 -27.38159,-11.80287 -54.39699,-20.57876 -44.30465,-14.39225 -60.4734,-26.24674 -75.63569,-55.45402 -9.8725,-19.01751 -17.63682,-30.78116 -26.4755,-40.1128 -9.60577,-10.14152 -18.62902,-15.94317 -31.78082,-20.43404 -9.27544,-3.16723 -13.33095,-3.6775 -36.43711,-4.58459 -29.43695,-1.15562 -36.54196,-2.58987 -53.17696,-10.73453 -18.20127,-8.91153 -32.65662,-25.97795 -38.82204,-45.83447 -0.9108,-2.93334 -3.04545,-6.83334 -4.74367,-8.66667 -8.34571,-9.0097 -7.55949,-25.46569 1.6008,-33.50588 6.73848,-5.91451 10.19292,-6.57757 29.47312,-5.6572 32.63012,1.55765 48.55056,-3.78349 70.33542,-23.59683 32.38577,-29.45487 47.8448,-38.46181 81.12589,-47.26661 24.22353,-6.40854 35.91068,-7.83343 64.20743,-7.82815 31.75487,0.006 49.16999,2.69609 78.53163,12.13099 30.86329,9.91743 51.78086,20.23212 75.72602,37.34135 71.90754,51.37918 120.54383,124.50325 141.70313,213.04899 14.5375,60.8358 16.3063,103.21414 6.6432,159.17018 -7.0054,40.56649 -24.8714,98.80017 -30.6695,99.9662 -2.0881,0.41994 -2.2445,-0.35741 -1.4751,-7.33333 0.4734,-4.29169 1.5208,-13.80306 2.3276,-21.1364 3.098,-28.15974 -1.2598,-65.24574 -11.22249,-95.50768 -26.1488,-79.42741 -91.61899,-144.32025 -197.90351,-196.15831 -11.91979,-5.81363 -21.38442,-11.03612 -21.0325,-11.60553 2.17966,-3.52677 42.17172,-1.81437 58.70485,2.51366 27.47028,7.19113 66.01226,25.08335 89.5135,41.55455 13.06638,9.15777 18.27329,12.35433 26.16067,16.06022 l 5.00751,2.35279 -3.67418,-4.6773 c -8.83117,-11.24226 -39.32573,-32.59718 -63.5632,-44.51244 -17.56275,-8.63393 -42.00468,-17.24922 -58.77763,-20.71792 -14.48499,-2.99555 -35.8157,-3.62391 -79.33333,-2.33703 l -36.66667,1.08429 44.66667,22.47322 c 65.21248,32.81047 91.31828,48.24684 122.00472,72.14145 55.53298,43.24185 86.585,89.18145 102.65071,151.86557 10.04984,39.21177 9.59296,74.98955 -1.46296,114.56335 -12.16376,43.53921 -34.32546,76.78903 -72.50415,108.78004 -52.93215,44.35332 -110.74271,68.04372 -185.63577,76.07242 -11.69866,1.2541 -59.12384,1.5853 -72.38588,0.5054 z M 939.82987,483.10406 c -2.98708,-3.63891 -25.0131,-17.62244 -36.49659,-23.17038 -43.9732,-21.24445 -102.85556,-28.09979 -142.55123,-16.59644 -20.12848,5.83301 -28.65556,10.5731 -12.05816,6.70298 31.29436,-7.29711 72.74711,-7.95825 102.61324,-1.63661 22.48474,4.75925 56.91208,18.56256 79.99615,32.07368 8.92999,5.22674 11.20926,5.93138 8.49659,2.62677 z M 367.33331,1024.4521 c -2.93333,-0.238 -13.13333,-1.0594 -22.66666,-1.8252 -9.53334,-0.7658 -20.93334,-1.9535 -25.33334,-2.6394 -28.55029,-4.4503 -36.68605,-5.9734 -53.88193,-10.0877 -20.49255,-4.9029 -23.82398,-6.3744 -21.30458,-9.4101 0.83217,-1.0027 2.06824,-1.82309 2.74682,-1.82309 0.67858,0 13.56467,-4.49626 28.63576,-9.99169 77.55516,-28.27923 147.07615,-65.46721 209.97664,-112.32014 47.54151,-35.41243 94.74094,-83.77632 130.54157,-133.76217 17.67689,-24.68097 46.07697,-73.98108 54.29952,-94.25932 2.03071,-5.00809 3.56258,-6.99999 5.38332,-6.99999 2.77173,0 26.55589,16.49325 42.09736,29.19264 28.95139,23.65704 51.89964,58.04596 60.41399,90.53293 4.61874,17.62308 5.72333,44.36144 2.49492,60.3939 -12.54048,62.27679 -59.52492,115.48264 -133.53593,151.21798 -55.29959,26.70075 -126.91568,44.95115 -201.2008,51.27335 -14.53237,1.2368 -65.62206,1.5667 -78.66666,0.508 z m 673.99999,-0.5694 c -23.1205,-2.9676 -47.97121,-10.5217 -68.57773,-20.8463 -21.89321,-10.96916 -44.75563,-25.84273 -44.75563,-29.11656 0,-0.83099 6.65671,-8.05292 14.79268,-16.04873 40.72775,-40.02609 68.87268,-82.90582 91.80728,-139.87116 7.4643,-18.54 9.7297,-22.20369 12.2011,-19.73227 1.0778,1.07779 1.0921,2.71254 0.052,5.94285 -3.0257,9.39686 -9.3994,41.02571 -10.7615,53.40353 -6.4663,58.75772 12.531,107.95002 52.3077,135.44766 9.9462,6.87579 33.1969,18.93818 36.504,18.93818 0.9699,0 1.7634,1.1833 1.7634,2.6295 0,7.5632 -53.3929,13.353 -85.3333,9.2533 z M 388.40511,896.33328 c -15.67448,-24.26944 -28.17965,-55.2388 -33.24553,-82.33333 -3.02089,-16.15706 -3.18451,-57.65611 -0.27857,-70.65284 2.30813,-10.32304 4.62649,-10.80511 10.24725,-2.13079 8.30415,12.81548 22.47811,22.80362 40.20505,28.33179 8.97445,2.79869 12.52968,3.1174 34.66666,3.10767 30.28459,-0.0133 42.48853,-2.04674 73.77377,-12.29226 24.83093,-8.13182 53.05586,-21.5939 77.31588,-36.87636 7.93264,-4.99712 14.8011,-8.70756 15.26324,-8.24542 1.92649,1.92649 -13.53456,23.59179 -38.79867,54.36792 -32.03334,39.02223 -74.82856,77.39073 -124.88755,111.96922 -18.71737,12.92912 -41.27947,26.42107 -44.183,26.42107 -1.73467,0 -4.93986,-3.71026 -10.07853,-11.66667 z M 417.85164,752.6821 c -4.48159,-0.97489 -10.75483,-3.10226 -13.94054,-4.72749 -9.27071,-4.72956 -20.41913,-16.29258 -24.75201,-25.67252 -3.68352,-7.97417 -3.82399,-9.02582 -3.77776,-28.28213 0.0427,-17.7701 0.47239,-21.5506 3.85431,-33.90734 8.47656,-30.97141 25.67376,-65.47053 43.24798,-86.75932 16.13936,-19.55066 28.59015,-32.13157 31.37472,-31.70262 1.54457,0.23793 2.70976,1.01835 2.58932,1.73428 -4.77694,28.39492 -3.99447,43.05435 4.26839,79.96834 2.31199,10.32867 3.82873,21.78663 4.27906,32.32531 l 0.6976,16.32531 8.9951,-8.48552 c 21.41756,-20.20424 42.64115,-29.73848 80.50686,-36.16597 10.92375,-1.85425 25.2722,-5.18415 31.88545,-7.39979 6.94351,-2.3263 12.52097,-3.53155 13.20007,-2.85246 2.66753,2.66754 -11.40871,31.40152 -22.7301,46.39918 -13.70905,18.16066 -31.29711,33.33228 -48.88345,42.16731 -3.66667,1.84206 -13.56667,5.91596 -22,9.05313 -29.47905,10.96607 -42.69078,19.00241 -52.76632,32.09632 l -6.05621,7.8705 -10.92207,-0.106 c -6.00713,-0.0583 -14.58882,-0.90363 -19.0704,-1.87852 z"
       id="path4800" />
    <path
       style="fill:#90b8c5;fill-opacity:1"
       d="m 673.33329,1032.4424 c -28.46981,-1.0279 -69.06255,-5.5514 -77.04213,-8.5852 -1.74604,-0.6639 -2.96381,-1.8394 -2.70615,-2.6124 0.25765,-0.7729 12.15642,-6.0757 26.44171,-11.7838 29.46213,-11.7726 48.88594,-21.23761 72.76401,-35.45713 23.31709,-13.88546 33.80761,-22.1855 52.69125,-41.68901 24.35772,-25.15728 39.26201,-48.74375 49.63827,-78.55396 7.27565,-20.90242 9.32766,-36.33129 8.53709,-64.18982 -0.83719,-29.50161 -3.95236,-42.75005 -15.57477,-66.23779 -17.52187,-35.40995 -51.31278,-70.16566 -92.96319,-95.61748 -6.20183,-3.78983 -11.60552,-7.42368 -12.00819,-8.07522 -0.40268,-0.65155 -0.10129,-3.68723 0.66975,-6.74596 0.77104,-3.05873 1.74717,-7.21133 2.16919,-9.228 0.4813,-2.29995 1.63144,-3.66667 3.08565,-3.66667 2.74677,0 54.73279,32.63912 73.2666,46 17.54134,12.64543 44.51625,39.63803 54.0976,54.1331 23.99082,36.2943 33.4262,76.32554 26.8759,114.02557 -2.61439,15.047 -5.94118,25.81417 -12.82736,41.51575 -3.15223,7.1876 -4.97752,12.97952 -4.29744,13.63645 0.65021,0.62808 3.85912,1.34007 7.1309,1.58221 l 5.9487,0.44024 6.38067,-9.24103 c 16.76651,-24.28267 24.7314,-65.75953 19.11421,-99.53646 -8.15075,-49.01157 -30.99699,-85.4356 -79.79776,-127.22249 -7.7078,-6.6 -13.78678,-12.23298 -13.50885,-12.51772 1.18598,-1.21506 24.77912,11.34986 39.07486,20.80996 19.59707,12.96821 49.06335,41.76158 60.60257,59.21859 9.16882,13.87097 18.95335,34.39456 25.02399,52.48916 2.86469,8.53873 4.63959,12.25455 4.93582,10.33333 0.3922,-2.54368 1.28761,-3 5.88673,-3 h 5.42418 l -0.82798,-7 c -1.15455,-9.76102 -8.2434,-31.86813 -13.78834,-43 -15.98286,-32.08672 -45.54995,-62.11116 -80.4175,-81.6614 -11.09275,-6.2197 -27.49115,-12.65531 -55.41122,-21.74629 -46.90871,-15.27385 -63.41411,-26.50392 -77.9221,-53.0173 -3.3,-6.03075 -8.68977,-15.83017 -11.97727,-21.77649 -7.17777,-12.98295 -20.44537,-27.72149 -31.25151,-34.71631 -4.3425,-2.8109 -12.7425,-6.67719 -18.66667,-8.59175 -9.45448,-3.05549 -14.03108,-3.60584 -37.43788,-4.50204 -21.77666,-0.83379 -28.37817,-1.55921 -36,-3.95597 -26.41978,-8.30793 -45.06852,-26.37982 -53.24343,-51.59648 -1.22982,-3.79356 -3.14272,-7.64986 -4.25088,-8.56956 -6.69884,-5.55954 -7.96781,-20.11457 -2.46029,-28.2196 4.28317,-6.30326 12.04724,-10.31345 19.9677,-10.31345 9.09107,0 13.50686,2.90501 17.70594,11.64819 2.93198,6.10485 4.9741,8.34144 10.81726,11.84738 10.56037,6.33629 38.35259,13.17957 38.35259,9.44356 0,-2.65308 4.56511,-8.93913 6.49185,-8.93913 0.95739,0 2.16712,-1.94143 2.68829,-4.31429 1.03899,-4.73048 3.91494,-7.57761 7.72067,-7.64331 1.35099,-0.0233 3.98191,-1.2424 5.84647,-2.70907 1.86457,-1.46667 4.41621,-2.66667 5.67033,-2.66667 1.25411,0 3.36619,-1.2 4.6935,-2.66666 1.32732,-1.46667 3.72732,-2.66667 5.33333,-2.66667 1.60602,0 4.00602,-1.2 5.33334,-2.66667 1.32731,-1.46666 4.08489,-2.66666 6.12796,-2.66666 2.04306,0 4.11778,-0.65227 4.61049,-1.44949 0.49271,-0.79722 1.96804,-1.16911 3.2785,-0.82641 1.61851,0.42325 4.88432,-1.92485 10.18286,-7.32143 13.71605,-13.96983 23.66447,-17.06519 35.78625,-11.13456 4.0493,1.98114 8.00726,4.80707 8.79547,6.27986 0.78821,1.47278 3.63481,3.60724 6.32578,4.74325 5.38501,2.27331 27.74673,4.79043 38.22601,4.30287 8.29108,-0.38575 11.31143,-0.29125 21.18724,0.66286 4.62646,0.44697 8.53783,0.19117 9.51823,-0.62249 1.05652,-0.87683 3.54451,-0.96896 6.81276,-0.25227 2.83164,0.62094 8.0975,0.94444 11.70191,0.71889 3.88627,-0.24319 8.15052,0.38662 10.47752,1.54749 2.72853,1.36116 4.65619,1.56575 6.3271,0.67151 1.63015,-0.87243 4.04961,-0.70798 7.52247,0.5113 7.10236,2.49355 21.21526,2.54898 23.67126,0.093 2.64651,-2.64651 4.12863,-2.41778 6.38862,0.98594 1.56897,2.36301 3.29207,2.93408 9.16263,3.03673 3.97664,0.0695 7.9733,0.591 8.88147,1.15883 0.90817,0.56783 4.80817,0.91251 8.66667,0.76596 3.8585,-0.14656 9.00575,0.17885 11.43833,0.72313 3.37997,0.75625 5.04976,0.42228 7.0814,-1.41633 2.6359,-2.38546 3.55855,-2.00087 5.47404,2.28177 0.19526,0.43654 2.00501,1.19797 4.02168,1.69206 4.60174,1.12745 5.18981,-2.3072 0.66666,-3.89367 -2.37609,-0.83341 -1.62272,-1.16069 3.6225,-1.57371 4.53478,-0.35708 7.05676,0.0506 8,1.29329 0.86664,1.14174 4.44606,1.89088 9.65163,2.02001 4.55077,0.11289 9.95917,1.07662 12.01866,2.14162 4.93166,2.55026 28.60542,26.71695 39.37351,40.19334 43.02139,53.84169 69.51719,122.39725 78.32799,202.66665 1.9229,17.5185 1.6289,53.79101 -0.5786,71.38401 -2.6778,21.34187 -10.3787,58.94148 -15.9649,77.94932 -4.4338,15.08652 -14.4487,42.77566 -16.0511,44.37812 -2.0276,2.02756 -2.2992,-2.1124 -0.8394,-12.79478 1.9995,-14.63097 2.0583,-52.54589 0.1045,-67.26639 -3.0416,-22.91634 -12.52938,-52.84008 -23.9653,-75.58498 -32.17738,-63.99765 -86.99349,-113.22759 -178.23899,-160.07512 -11.61994,-5.96594 -21.34989,-11.47254 -21.62212,-12.23689 -0.33311,-0.93529 2.71883,-1.09158 9.33333,-0.47795 29.60017,2.74602 53.96654,9.8796 84.49496,24.73704 36.24773,17.64088 62.37634,38.13401 96.74117,75.8758 11.14955,12.24518 13.03671,13.78449 15.95218,13.01178 7.09005,-1.87913 7.5908,-2.95311 4.28721,-9.19498 -7.87142,-14.87239 -34.30044,-44.48399 -53.60165,-60.05635 -33.66378,-27.16019 -70.66488,-44.759 -114.71224,-54.5605 -10.55012,-2.34764 -116.34333,-2.45354 -114.40789,-0.11453 0.74649,0.90215 22.74365,12.37622 48.88257,25.49794 51.54677,25.87643 72.82783,37.73157 95.52532,53.21471 22.38081,15.26713 35.87496,26.13239 52.49035,42.26438 39.43102,38.2838 61.34706,75.70281 74.21664,126.71603 6.12186,24.2662 7.82199,39.88298 6.87811,63.1801 -1.30142,32.12206 -8.18251,59.19117 -22.23946,87.48656 -14.46777,29.12232 -34.94283,53.73578 -64.01231,76.95043 -54.71042,43.69127 -117.09117,66.80447 -193.35948,71.64307 -12.08561,0.7667 -23.47384,1.2777 -25.30717,1.1353 -1.83334,-0.1423 -7.83334,-0.4212 -13.33334,-0.6197 z M 967.69753,504.99997 c -6.29181,-9.62539 -41.31169,-35.21619 -61.62557,-45.03292 -47.69721,-23.0498 -105.27867,-29.7502 -147.60902,-17.17635 -13.47006,4.00116 -26.45891,10.06418 -26.46163,12.35192 -7.4e-4,0.62846 0.82795,0.82442 1.84153,0.43547 5.66814,-2.17506 34.20159,-7.66683 46.82378,-9.01206 28.80313,-3.06973 68.7729,1.45798 93.51131,10.59281 29.36685,10.84392 62.4101,28.07461 83.15535,43.36208 10.8867,8.02257 13.38679,9.10302 10.36425,4.47905 z M 385.33331,1024.4494 c -59.09102,-3.1468 -90.73156,-7.6571 -134.99999,-19.2436 -7.98552,-2.0901 -6.1361,-4.578 6.66666,-8.9684 52.75022,-18.0894 108.00143,-42.77962 149.19174,-66.66962 21.64167,-12.55197 60.30725,-37.84318 79.80825,-52.20268 45.48976,-33.49625 92.00972,-80.70988 129.26466,-131.19216 16.23537,-21.99972 46.76161,-72.84941 54.7812,-91.25285 2.33597,-5.3606 4.85375,-10.35308 5.59508,-11.09441 2.5985,-2.5985 43.96257,27.82458 58.51773,43.03953 34.13102,35.67818 51.79006,81.72522 47.12718,122.88707 -4.37157,38.59036 -21.05993,71.82367 -52.59551,104.73911 -58.17348,60.71887 -168.88906,101.38371 -298.02367,109.46131 -20.91284,1.3081 -28.53017,1.3916 -45.33333,0.4967 z m 669.33329,-0.5673 c -29.4828,-1.7201 -59.74126,-10.0314 -85.33332,-23.4392 -17.16973,-8.99525 -40,-23.98777 -40,-26.26778 0,-0.92425 8.85,-10.64177 19.66666,-21.59448 19.90864,-20.15904 36.90292,-41.30218 50.46747,-62.78821 9.41029,-14.90571 28.84969,-53.65875 37.18329,-74.12581 4.1013,-10.07278 7.0838,-15.66667 8.3529,-15.66667 1.4103,0 1.7311,0.8567 1.1233,3 -3.8584,13.6053 -10.3125,47.33698 -11.5489,60.35853 -6.3605,66.98842 23.2492,120.84728 80.0008,145.51822 5.5483,2.4119 10.0878,5.1487 10.0878,6.0818 0,2.3109 -6.8869,4.3864 -22.7013,6.8414 -18.049,2.802 -27.6881,3.2263 -47.2987,2.0822 z M 395.70465,905.66661 c -4.27043,-4.87979 -16.39727,-25.48346 -21.77734,-37 -13.18947,-28.23325 -19.11043,-52.12216 -20.19521,-81.48031 -0.7898,-21.37477 1.25225,-45.28771 4.21313,-49.33695 1.48102,-2.02542 2.24576,-1.47697 7.09682,5.08968 14.92192,20.19905 34.86115,29.70287 65.66207,31.29712 50.31829,2.60445 108.25209,-15.65274 164.51198,-51.84412 4.33554,-2.789 8.17835,-4.77537 8.53958,-4.41414 1.45864,1.45865 -12.47267,20.56782 -38.54548,52.87173 -29.23611,36.22319 -75.09104,77.00792 -125.87689,111.95863 -11.0642,7.61435 -39.56998,25.1917 -40.85425,25.1917 -0.40285,0 -1.65133,-1.05 -2.77441,-2.33334 z m 20.43483,-154.44335 c -10.86768,-2.92248 -19.57162,-8.2535 -27.55604,-16.87763 -5.78461,-6.24807 -7.77065,-9.6454 -10.07651,-17.23696 -2.53699,-8.35248 -2.78344,-11.49515 -2.11328,-26.94858 0.85779,-19.78024 3.8543,-32.64757 12.93594,-55.54827 6.65107,-16.77168 15.02488,-32.84227 24.62893,-47.26659 10.0897,-15.15371 36.23191,-44.6786 39.55976,-44.6786 1.90944,0 2.46584,0.65926 1.96926,2.33334 -0.38068,1.28333 -1.37856,7.43333 -2.21752,13.66666 -1.88592,14.01203 -0.78676,29.67654 3.53397,50.36402 6.12428,29.32278 7.45075,38.30043 7.58008,51.30264 0.0711,7.15 0.39084,13 0.71048,13 0.31964,0 4.63278,-3.82209 9.58476,-8.49354 21.76364,-20.53071 42.14872,-29.70194 80.31642,-36.13429 11.54767,-1.94612 26.09767,-5.26294 32.33333,-7.37073 l 11.33757,-3.83234 v 3.03366 c 0,4.3094 -12.23736,28.78353 -19.43679,38.87262 -8.75082,12.26318 -23.40799,27.53408 -32.96371,34.34397 -10.90851,7.77396 -23.29981,13.87912 -43.59949,21.48134 -27.31577,10.22973 -40.53494,18.53865 -49.99303,31.42314 l -4.90075,6.67617 -12.21978,-0.0878 c -6.72087,-0.0483 -15.45699,-0.95829 -19.4136,-2.02228 z"
       id="path4799" />
    <path
       style="fill:#5c93a5"
       d="m 657.99996,1031.1236 c -27.10675,-2.1758 -40.43358,-3.6382 -50.55658,-5.5476 -11.47881,-2.1652 -15.64005,-4.6869 -10.55429,-6.3961 12.8498,-4.3182 49.86388,-19.88777 63.44081,-26.6856 18.68233,-9.35406 43.28695,-23.55636 53.67006,-30.97948 9.87079,-7.05685 33.0716,-28.77617 42.77826,-40.04665 24.43004,-28.36592 41.41388,-64.19187 46.5332,-98.15779 5.39109,-35.769 0.0604,-71.33176 -15.30903,-102.13242 -16.73693,-33.54106 -51.14332,-68.61071 -91.82712,-93.59729 -6.13691,-3.76908 -11.46256,-7.64649 -11.83478,-8.61647 -0.8874,-2.31255 2.34937,-17.48788 3.93966,-18.47074 1.37885,-0.85218 7.59841,2.82259 40.38647,23.86199 32.86066,21.08599 41.98505,27.92514 59.11731,44.31118 16.01794,15.32025 27.52853,29.56891 35.72038,44.2173 16.2255,29.01391 23.82021,62.60492 20.47987,90.58143 -3.98744,33.39619 -14.44367,56.93084 -39.65089,89.24534 -6.05,7.75582 -11,14.66874 -11,15.36204 0,0.69329 1.38,1.26054 3.06666,1.26054 1.68667,0 3.69265,0.62598 4.45774,1.39107 3.31639,3.31639 25.92117,-17.74379 39.41788,-36.7244 32.42726,-45.60292 36.34196,-106.4754 10.32274,-160.51562 -11.51464,-23.91515 -21.19262,-37.37805 -43.38674,-60.35468 -8.31642,-8.60963 -10.62373,-11.73664 -9.09338,-12.3239 8.25759,-3.16873 54.89195,38.08613 71.62909,63.36633 4.18955,6.328 10.22736,17.128 13.41736,24 11.20247,24.13273 15.37395,40.94971 16.74168,67.49276 0.53843,10.44902 1.24265,19.26191 1.56494,19.5842 0.32229,0.32229 3.34789,-0.32328 6.72356,-1.43459 5.8765,-1.93462 6.17304,-2.27933 6.97135,-8.10363 0.45858,-3.34568 0.83378,-12.22072 0.83378,-19.72231 0,-57.41898 -29.93914,-110.46937 -82,-145.29916 -18.83254,-12.59936 -34.20638,-19.52564 -68.63199,-30.92036 -33.15213,-10.97321 -44.67035,-16.14923 -57.77342,-25.96202 -10.7637,-8.06085 -18.40661,-18.03191 -27.62355,-36.03808 -17.07932,-33.36609 -33.26047,-49.54643 -57.30436,-57.30153 -6.85952,-2.21246 -14.08812,-3.02239 -34.66667,-3.88425 -15.70986,-0.65795 -29.42204,-1.93508 -34.64644,-3.22693 -26.80151,-6.62723 -47.58603,-24.93153 -56.14664,-49.44667 -1.5191,-4.35024 -3.88346,-9.11772 -5.25415,-10.5944 -3.42238,-3.68703 -6.61943,-11.72788 -6.61943,-16.64847 0,-18.3793 24.38442,-29.69238 35.85081,-16.63288 6.16636,7.0231 8.18524,16.30674 5.32837,24.50198 -0.81813,2.34686 -1.13263,4.6219 -0.69889,5.05563 1.41298,1.41299 4.85305,-2.50865 4.85305,-5.53243 0,-1.62132 0.32155,-3.2694 0.71455,-3.66241 0.39301,-0.39301 4.17991,0.68516 8.41533,2.39592 11.83752,4.78139 21.70643,7.00626 44.20345,9.96533 21.31326,2.80336 38.50583,6.40751 59.32239,12.43597 l 11.98906,3.47203 10.01094,-4.97453 c 5.50601,-2.736 10.55045,-4.80596 11.20987,-4.59993 0.65942,0.20604 2.15942,-0.0534 3.33333,-0.57654 1.17392,-0.52314 3.6344,-1.12154 5.46773,-1.32978 1.83334,-0.20824 5.43334,-0.69006 8,-1.07071 2.56667,-0.38064 9.46667,-0.70826 15.33333,-0.72802 5.86667,-0.0198 13.71908,-0.0688 17.44981,-0.10904 4.56866,-0.0492 7.34253,0.60094 8.49659,1.9915 1.9558,2.35659 15.35362,2.94253 16.72027,0.73124 0.45322,-0.73333 2.43863,-1.34099 4.41202,-1.35035 1.97339,-0.009 8.28836,-1.5181 14.03327,-3.35276 32.72734,-10.45157 68.78477,-9.29964 107.77949,3.44324 11.81068,3.85955 49.35248,20.12031 52.67414,22.81514 2.19432,1.78024 11.0633,-0.11996 15.35508,-3.28986 2.80847,-2.07433 4.83849,-2.47813 9.34977,-1.85979 3.16933,0.43441 8.08445,0.26613 10.92248,-0.37395 4.92589,-1.11097 5.41495,-0.90523 10.77673,4.53355 5.39025,5.46765 19.40101,27.46704 26.38863,41.43478 10.3151,20.61938 19.4591,45.66763 26.4323,72.40681 11.3696,43.59758 16.1933,87.20113 13.4998,122.03288 -2.8294,36.58955 -14.1205,88.57378 -26.493,121.97313 -5.8966,15.91764 -7.7412,18.21953 -6.6142,8.25383 3.2508,-28.74768 2.198,-64.03442 -2.6025,-87.22644 -7.55026,-36.4769 -27.63031,-77.78814 -53.65673,-110.38957 -31.26868,-39.16802 -77.58424,-74.75929 -138.25729,-106.24405 -23.11875,-11.9969 -24.6821,-13.29567 -15.09955,-12.54416 23.55546,1.84732 48.20027,9.05987 76.39185,22.35685 22.88837,10.79564 52.62365,30.88115 71.20181,48.09522 19.07678,17.67608 43.09735,47.92162 55.61131,70.02307 4.138,7.30828 8.0693,13.62508 8.7364,14.03733 0.667,0.41225 2.885,-0.65753 4.9288,-2.37729 3.3336,-2.80504 3.5928,-3.60249 2.5183,-7.74877 -0.6587,-2.54207 -4.0911,-10.75614 -7.6276,-18.25347 -27.77976,-58.8931 -87.40242,-109.94597 -153.84125,-131.72911 -30.96697,-10.15306 -38.02503,-10.82705 -107.48673,-10.26424 -16.5,0.1337 -33,-0.0921 -36.66666,-0.50173 l -6.66667,-0.74482 3.03974,2.66817 c 1.67186,1.46749 24.17185,13.30434 50,26.3041 52.27048,26.30868 74.27962,38.55471 96.96025,53.94933 73.09594,49.61435 112.76726,104.71372 129.54376,179.92292 2.77431,12.43728 3.11976,17.34867 3.09475,43.99999 -0.0265,28.19801 -0.25381,30.95477 -3.78482,45.89516 -12.05921,51.02491 -35.62696,88.34625 -77.57714,122.84936 -52.19727,42.93111 -111.2568,66.59103 -184.41781,73.87983 -12.53934,1.2493 -53.04248,1.5548 -66.19206,0.4993 z M 986.66661,523.86664 c 0,-0.80667 -7.95,-9.39284 -17.66667,-19.08038 -34.35835,-34.25536 -74.2,-55.63156 -121.14308,-64.99676 -12.82996,-2.5596 -19.54093,-3.03765 -43.19024,-3.07667 -27.55975,-0.0455 -28.23061,0.0204 -42.66667,4.19125 -14.56099,4.20691 -31.91286,11.46419 -33.48239,14.00374 -2.03715,3.29619 2.58947,3.18509 16.70477,-0.40113 20.63349,-5.24226 36.80999,-6.9466 59.24551,-6.24205 19.14667,0.60127 27.53211,2.67037 27.53211,6.79352 0,1.09376 6.04625,2.62996 17.80072,4.52272 23.84492,3.8396 42.38389,10.2414 72.68119,25.09794 26.694,13.08965 34.26287,17.76872 51.51808,31.84842 10.89412,8.88926 12.66667,9.91632 12.66667,7.3394 z m -633.4049,498.08826 c -28.2943,-2.2036 -61.98475,-7.4159 -86.92694,-13.4486 -18.62932,-4.5058 -23.40828,-6.4236 -19.41929,-7.7931 94.47013,-32.43285 170.19355,-71.50568 241.75116,-124.74209 54.06152,-40.21992 106.7732,-96.6141 147.96733,-158.30449 5.0193,-7.51666 9.78617,-13.66666 10.59304,-13.66666 2.22608,0 12.53032,10.46031 13.55706,13.76239 0.7837,2.52044 7.47441,10.96934 10.21893,12.90427 1.73279,1.22164 4.85256,-4.846 7.61248,-14.80552 5.43958,-19.62938 6.08228,-48.21747 1.4355,-63.85234 -1.70474,-5.73584 -1.73261,-5.34213 0.37823,-5.34213 2.00058,0 17.34511,10.3413 28.08154,18.92529 3.94957,3.15775 10.47959,8.32455 14.51117,11.48177 4.03157,3.15722 11.42326,10.53445 16.42597,16.39383 47.25937,55.35212 54.58265,117.42851 21.0508,178.43885 -9.61019,17.48548 -30.81272,42.89582 -47.41652,56.8267 -48.92424,41.04828 -116.24956,69.16843 -204.11592,85.25423 -52.25703,9.5668 -102.29515,12.1273 -155.70454,7.9676 z m 689.44219,0.5455 c -12.6805,-1.4683 -39.4079,-7.9501 -51.43132,-12.4728 -17.16462,-6.4566 -55.41711,-28.44213 -60.82628,-34.95979 -1.43105,-1.7243 0.35219,-3.96291 11.85479,-14.88207 22.66056,-21.51113 42.60484,-45.8533 58.76331,-71.72114 8.7749,-14.04746 28.1324,-52.73528 35.8588,-71.66691 3.3216,-8.13876 6.2727,-15.04774 6.558,-15.35329 1.977,-2.11728 1.2704,3.38062 -2.7419,21.33333 -5.7403,25.68474 -7.406,38.91148 -7.406,58.80663 0,23.94275 5.3466,47.92573 14.925,66.9476 12.8959,25.61033 37.3376,48.28578 65.075,60.37244 5.5,2.3967 10,5.0973 10,6.0013 0,4.0114 -31.732,9.1738 -54.8378,8.9213 -8.7059,-0.095 -20.3121,-0.6921 -25.7916,-1.3266 z M 394.21393,902.33328 c -22.12218,-29.45015 -37.77952,-73.8249 -40.17418,-113.85834 -1.15363,-19.28622 2.05604,-49.62224 5.36626,-50.71885 0.69335,-0.2297 2.96809,2.28494 5.05498,5.58808 8.12151,12.85476 26.97797,25.11826 44.87232,29.18319 20.06737,4.55856 50.11362,3.78612 76.82696,-1.9751 15.76191,-3.39934 42.97791,-12.60198 59.8397,-20.2338 12.57245,-5.69042 41.35686,-21.2175 48.66666,-26.2521 5.40281,-3.72117 6.66667,-4.29321 6.66667,-3.01744 0,1.65255 -14.37767,21.43903 -24.42121,33.60837 -4.535,5.49487 -11.16374,13.86364 -14.73053,18.59728 -20.77034,27.56517 -65.60724,68.01198 -112.62599,101.5985 -17.35831,12.39943 -48.12392,31.77646 -50.48774,31.79858 -0.87935,0.008 -3.0636,-1.93504 -4.8539,-4.31837 z m 27.11938,-150.50097 c -16.07919,-2.60754 -32.32784,-14.00768 -39.14787,-27.46635 -16.83885,-33.22987 4.7541,-104.78212 46.91716,-155.46875 20.20245,-24.28652 27.05852,-30.0994 25.04066,-21.23058 -0.45883,2.01667 -1.21245,10.61651 -1.6747,19.11077 -0.94566,17.37734 0.2988,28.18254 6.32786,54.94283 2.83494,12.58299 4.20181,22.86648 4.78619,36.00816 l 0.81797,18.39509 8.12556,-8.22693 c 10.6023,-10.73455 21.92754,-18.72013 35.70667,-25.17725 13.716,-6.42754 26.01388,-9.84141 48.12231,-13.3587 9.362,-1.48943 22.38434,-4.43254 28.93853,-6.54025 6.5542,-2.10771 12.19862,-3.5503 12.54317,-3.20575 1.86585,1.86585 -10.01215,26.39867 -18.90773,39.05203 -8.07303,11.48333 -24.33116,28.24275 -34.26246,35.31886 -10.61041,7.55998 -21.39577,12.85551 -42.08652,20.66415 -25.8224,9.74531 -32.30577,13.5801 -45.55148,26.94283 l -11.63801,11.74082 -8.36199,-0.15587 c -4.59909,-0.0857 -11.66199,-0.69103 -15.69532,-1.34511 z M 663.23529,397.29406 c -2.25391,-0.6866 -6.25974,-3.58478 -8.90184,-6.44038 l -4.80383,-5.19201 -6.93938,1.26127 c -4.27074,0.77623 -7.41554,0.78511 -8.17756,0.0231 -1.99454,-1.99454 13.90177,-20.90322 21.1384,-25.14417 19.08267,-11.18319 40.89988,5.02101 33.07859,24.56833 -3.60775,9.01668 -15.23551,14.01857 -25.39438,10.92387 z"
       id="path4798" />
    <path
       style="fill:#21718c"
       d="m 637.12737,1028.685 c -17.98315,-1.778 -39.49707,-5.277 -40.86647,-6.6463 -1.09808,-1.0981 -1.03334,-1.1276 25.0724,-11.4301 33.91013,-13.38248 78.52044,-36.78259 98.53082,-51.68388 8.61858,-6.41806 38.77925,-37.54513 46.60053,-48.0937 48.57072,-65.50732 53.23061,-146.67757 11.93481,-207.89113 -18.19383,-26.96906 -43.37944,-51.03854 -74.3995,-71.1024 -21.77528,-14.08431 -20.3587,-12.32185 -17.81991,-22.17086 1.18145,-4.58333 2.66364,-8.33333 3.29376,-8.33333 1.90683,0 60.33325,37.38575 72.8462,46.61264 15.11493,11.14557 38.47939,33.87443 48.57666,47.25519 13.44627,17.8188 25.89659,45.54198 30.59779,68.13216 2.5892,12.44159 2.27689,40.62953 -0.5983,53.99999 -4.82404,22.43326 -14.65399,43.71479 -29.2909,63.41393 -9.85297,13.26067 -32.75563,36.43628 -48.27197,48.84729 -18.97212,15.17517 -19.33333,15.50643 -19.33333,17.72996 0,2.48346 -0.593,2.52794 8.6378,-0.64792 10.83817,-3.72888 27.91621,-13.28632 40.94849,-22.91615 14.32963,-10.58846 38.6905,-35.01046 47.6409,-47.76044 14.28331,-20.3468 25.18543,-47.91907 27.54329,-69.65904 0.78942,-7.27855 3.07631,-15.04017 3.18896,-10.82318 0.0288,1.07783 2.41131,0.92059 8.21928,-0.54244 6.43915,-1.62203 8.71943,-1.72255 10.7209,-0.47261 1.39819,0.87319 3.21032,1.17468 4.02694,0.66998 2.49792,-1.5438 0.18141,29.16596 -3.43172,45.49396 -3.6069,16.29985 -8.6544,31.48437 -13.57804,40.8471 -3.28017,6.23753 -3.92295,9.84815 -2.44083,13.71051 1.45076,3.78062 3.73773,2.11302 11.38784,-8.30374 10.55242,-14.36868 16.24116,-25.31737 21.80497,-41.96634 6.63697,-19.86029 8.66364,-32.89936 8.6452,-55.62086 -0.0225,-27.68872 -5.56368,-52.26824 -17.28373,-76.66667 -12.36662,-25.74445 -37.77842,-54.15896 -64.13033,-71.7081 -20.77765,-13.83694 -36.07586,-20.77744 -71.37983,-32.38364 -32.40766,-10.65404 -46.24103,-17.02106 -58.58234,-26.96344 -9.5832,-7.72039 -16.03542,-16.7372 -27.94132,-39.04728 -18.29417,-34.28087 -36.92358,-49.78649 -67.06205,-55.81706 -3.8861,-0.77759 -15.16139,-1.4138 -25.05621,-1.4138 -22.17177,0 -34.89728,-2.40005 -49.57497,-9.34993 -18.21272,-8.62372 -31.86474,-23.6932 -38.3949,-42.38136 -1.62577,-4.65268 -4.18026,-9.76651 -5.67664,-11.36406 -8.92013,-9.52327 -7.04577,-25.11889 4.00236,-33.30156 4.41746,-3.27174 15.22789,-4.35318 19.72597,-1.97333 8.45959,4.47582 12.11732,18.52975 7.26485,27.9134 -2.8924,5.59328 -1.58335,8.93395 5.8011,14.80441 15.28079,12.14785 30.85904,16.35946 64.97406,17.56588 11.73334,0.41493 27.00169,1.67582 33.92969,2.80199 6.92799,1.12617 14.29514,1.67446 16.37143,1.21843 2.68736,-0.59024 3.66806,-0.33881 3.40365,0.87264 -0.20429,0.93598 0.64759,1.92545 1.89306,2.19882 1.96251,0.43075 2.09587,-0.0909 1,-3.91201 -1.56659,-5.46237 -1.60304,-5.09331 0.50309,-5.09331 0.97217,0 3.20644,1.5316 4.96506,3.40356 2.68025,2.85299 2.88141,3.5989 1.24356,4.61114 -1.26521,0.78195 -1.48788,1.62947 -0.63173,2.4045 1.86262,1.68614 15.0989,8.49964 29.98886,15.43704 6.96666,3.24585 15.01758,7.77068 17.89093,10.05518 2.87335,2.28449 27.46525,15.38899 54.64868,29.1211 78.16347,39.48544 115.76659,63.73412 149.25396,96.24765 24.64428,23.92761 40.13598,44.54907 54.12931,72.05315 23.71343,46.60906 32.58335,98.57653 24.57821,143.99999 -9.91276,56.24782 -33.58993,95.91104 -80.15796,134.27796 -45.08274,37.14319 -91.90007,57.94442 -155.88369,69.26012 -17.72916,3.1355 -23.75472,3.5411 -57.79278,3.8904 -24.89071,0.2555 -44.2807,-0.231 -56.20592,-1.4101 z m -245.79406,-5.5578 c -24.45938,-0.909 -55.89205,-3.4377 -74,-5.9532 -33.27304,-4.6223 -67.99537,-12.4131 -67.6283,-15.1741 0.0975,-0.7333 12.57277,-5.91869 27.72285,-11.52306 91.71066,-33.92594 176.60942,-82.09422 240.57211,-136.49132 17.43088,-14.82411 52.9224,-49.40182 68.93736,-67.16242 6.43913,-7.141 10.65905,-10.81793 11.68663,-10.18285 0.88457,0.5467 1.28685,2.22328 0.89395,3.72575 -0.3929,1.50246 -0.10354,3.8731 0.64303,5.26808 0.93462,1.74634 0.91036,3.07499 -0.0779,4.26573 -1.6263,1.95958 1.6341,11.43348 3.93479,11.43348 0.72349,0 1.31544,1.35567 1.31544,3.0126 0,1.65693 1.16269,3.73872 2.58376,4.62619 1.62999,1.01795 2.73742,3.43621 3,6.551 0.22893,2.71557 1.19351,5.19288 2.14352,5.50512 2.93793,0.96563 32.31701,-29.94707 41.39021,-43.55081 15.16219,-22.73315 24.64771,-45.65132 28.72961,-69.4142 2.58694,-15.05997 2.75324,-38.93311 0.35106,-50.39656 -1.20983,-5.7734 -1.30369,-8.31846 -0.30555,-8.28493 1.50593,0.0506 11.91352,7.44228 32.96736,23.4141 30.92991,23.46398 54.94157,61.78565 61.89886,98.78817 2.95911,15.73812 2.00108,44.56401 -1.98078,59.59899 -6.74352,25.46266 -18.93926,47.77171 -39.9468,73.07268 -47.41566,57.10625 -146.00742,99.99436 -262.83124,114.33356 -26.87326,3.2984 -62.41979,5.2656 -82,4.538 z m 644.17009,-2.5585 c -25.4223,-3.9534 -48.99917,-12.073 -71.77045,-24.71701 -13.46369,-7.47588 -31.03121,-18.97087 -32.4153,-21.21038 -0.47637,-0.77077 7.13227,-9.38589 16.90809,-19.14471 36.98936,-36.92507 64.96556,-79.48355 87.13796,-132.55771 3.4605,-8.28358 6.5374,-14.81553 6.8375,-14.51544 0.3001,0.30009 -1.2587,9.05783 -3.4641,19.46165 -9.8257,46.35345 -8.2455,80.90547 5.1818,113.30189 11.8683,28.63507 36.7627,53.62573 67.3536,67.61401 6.2532,2.8594 11.3751,5.6258 11.3818,6.1475 0.017,1.2971 -9.0674,3.6474 -22.6544,5.8613 -14.3011,2.3302 -48.7905,2.2013 -64.4965,-0.2411 z M 395.71193,902.99995 c -8.43942,-9.6782 -25.13447,-43.12152 -31.47401,-63.04838 -7.17579,-22.55542 -8.88299,-34.17774 -8.80625,-59.95162 0.0622,-20.88173 1.76724,-37.70512 4.04225,-39.88374 0.44966,-0.43061 1.76605,0.71708 2.92533,2.55041 3.89416,6.15843 16.87017,18.06306 24.26739,22.26373 38.04835,21.60658 108.14561,13.732 174.66666,-19.62169 8.43333,-4.22847 18.88886,-9.84724 23.2345,-12.48614 4.34564,-2.6389 8.175,-4.52417 8.50969,-4.18948 0.72315,0.72315 -12.49121,18.4266 -21.22852,28.44013 -3.39445,3.89026 -7.53019,9.71449 -9.19053,12.94272 -9.78788,19.03075 -64.50531,69.17015 -114.31553,104.75112 -17.20342,12.28892 -46.46017,30.56627 -48.92778,30.56627 -0.91769,0 -2.58412,-1.05 -3.7032,-2.33333 z m 615.88797,-95.71104 c 1.5668,-13.6438 1.0791,-54.30975 -0.799,-66.62229 -2.2263,-14.59462 -8.7321,-38.86278 -14.24576,-53.13937 -2.51659,-6.51626 -9.37102,-21.19684 -15.23207,-32.62352 -5.86105,-11.42667 -10.65646,-21.7811 -10.65646,-23.00984 0,-1.22874 -0.9,-2.98101 -2,-3.89393 -1.1,-0.91292 -2,-2.41738 -2,-3.34324 0,-2.33005 6.30703,-6.31736 7.34249,-4.64194 1.35182,2.18729 3.32418,1.48425 3.32418,-1.18489 0,-1.37687 0.86296,-3.2196 1.91768,-4.09495 5.59841,-4.64626 30.46254,36.70577 42.04844,69.93169 4.8038,13.77603 6.1293,15.6827 8.5888,12.35405 0.9398,-1.27193 2.1573,-1.87193 2.7056,-1.33333 1.5477,1.52045 -0.514,-13.50503 -4.0489,-29.50762 -9.9104,-44.86511 -38.42143,-88.59789 -81.21162,-124.56983 -26.31677,-22.1234 -55.93503,-38.7293 -88.35887,-49.53966 -26.3941,-8.79999 -42.12747,-11.08012 -72.52875,-10.51112 -12.95486,0.24247 -23.89837,0.0973 -24.31891,-0.32251 -1.53074,-1.52821 16.17821,-10.73274 27.88779,-14.49514 23.15852,-7.44106 42.99186,-8.21038 71.37107,-2.76843 38.22757,7.33047 71.72544,25.41643 115.66475,62.44901 18.73112,15.78681 28.38184,23.25682 29.10794,22.53069 0.3018,-0.3018 -2.3739,-4.98964 -5.9461,-10.41742 -14.98253,-22.76571 -41.42551,-48.1718 -68.21226,-65.53754 -31.82086,-20.62934 -67.0977,-33.17655 -103.80793,-36.92226 -29.82417,-3.04308 -51.0399,-1.18457 -75.34173,6.6 -6.8527,2.19512 -12.95966,3.99112 -13.57102,3.99112 -2.53992,0 7.34369,-8.60848 15.40019,-13.41334 24.93888,-14.87344 59.22088,-18.94406 96.12257,-11.41352 46.17917,9.42379 85.93464,30.91995 125.96951,68.11289 16.55513,15.37994 22.32234,19.38063 27.93817,19.38063 4.2234,0 4.4955,0.36029 10.3249,13.67107 11.5601,26.39625 21.3854,67.61314 26.441,110.9191 2.4793,21.23788 0.8601,60.20659 -3.4105,82.07649 -1.9332,9.9 -4.7111,24.3 -6.1731,32 -3.3398,17.58989 -9.5475,39.78557 -15.4632,55.28877 -2.5091,6.57549 -4.8621,12.25552 -5.2288,12.62229 -0.3668,0.36677 -0.1868,-3.51318 0.3999,-8.62211 z M 417.99998,750.11858 c -16.83616,-4.17854 -31.31595,-15.89765 -36.90352,-29.86761 -2.6227,-6.55721 -3.0275,-9.93176 -2.98907,-24.91768 0.052,-20.26312 3.73386,-37.29935 12.73568,-58.92853 11.59048,-27.8491 21.80204,-44.77177 42.36943,-70.21496 13.12747,-16.23952 18.3096,-21.77881 19.37649,-20.71193 0.31496,0.31497 -0.1088,6.71306 -0.9417,14.21799 -1.85922,16.75286 -0.15875,34.31628 5.77405,59.63744 3.19868,13.65194 4.22488,21.65189 4.83175,37.66666 0.42379,11.18333 1.1402,20.3293 1.59203,20.32438 0.45184,-0.005 4.38226,-3.65363 8.73427,-8.10823 14.14984,-14.4834 32.81137,-25.88265 52.08725,-31.81709 5.13333,-1.58039 19.53333,-4.61352 31.99999,-6.74029 12.46667,-2.12676 26.2106,-5.09503 30.54207,-6.59614 9.47219,-3.28268 8.7915,-3.25201 8.79021,-0.39596 -0.003,7.1373 -17.1608,35.37589 -30.75464,50.61713 -15.8638,17.78629 -30.06914,26.94658 -58.6984,37.85155 -30.97991,11.80034 -40.46282,17.40532 -52.81266,31.21549 l -7.73324,8.64767 -10.66666,-0.11265 c -5.86667,-0.062 -13.66667,-0.85722 -17.33333,-1.76724 z M 635.3333,449.33331 c -0.45323,-0.73334 0.41136,-1.33334 1.92131,-1.33334 1.50994,0 2.74535,0.6 2.74535,1.33334 0,0.73333 -0.86459,1.33333 -1.92131,1.33333 -1.05672,0 -2.29213,-0.6 -2.74535,-1.33333 z m 26.66666,-54.51212 c -2.93333,-1.34946 -6.70342,-4.33916 -8.37798,-6.64378 -2.94375,-4.05137 -3.28619,-4.16184 -10.33333,-3.33359 -4.74306,0.55745 -7.28869,0.36797 -7.28869,-0.54251 0,-0.76954 4.65,-6.21278 10.33333,-12.0961 11.96384,-12.38481 17.97539,-15.04271 27.61399,-12.20906 18.71521,5.5021 20.08011,30.83363 1.94165,36.03567 -6.16261,1.76741 -7.70843,1.63267 -13.88897,-1.21063 z"
       id="path4797" />
    <path
       style="fill:#1d526b"
       d="m 637.12737,1028.685 c -17.98315,-1.778 -39.49707,-5.277 -40.86647,-6.6463 -1.09737,-1.0974 -1.03006,-1.1282 24.89416,-11.3729 29.00672,-11.46291 48.3567,-21.04037 80.78825,-39.98694 13.16885,-7.69326 24.91476,-13.82318 26.10202,-13.62204 4.96534,0.84119 34.29979,-11.9923 51.56116,-22.55743 27.37504,-16.75537 59.51636,-49.66947 73.80566,-75.58018 l 3.1696,-5.7474 2.4536,3.36825 c 1.53172,2.10272 4.30298,3.68347 7.37577,4.20721 9.3661,1.59641 13.58897,3.62308 13.58645,6.52053 -0.003,3.04321 -10.33827,23.79564 -15.97001,32.06548 -7.91434,11.62168 -11.8295,17.80815 -16.72251,26.42372 -3.25369,5.72906 -1.7373,6.93724 3.40597,2.71369 19.75652,-16.22363 38.94207,-39.93415 49.86716,-61.62847 21.51495,-42.72298 23.22443,-94.7414 4.6927,-142.79579 -11.72252,-30.39749 -38.58398,-62.58519 -69.29894,-83.03992 -20.85119,-13.88592 -36.11924,-20.816 -71.45189,-32.43163 -32.42285,-10.65903 -46.24043,-17.02057 -58.6043,-26.98112 -9.42223,-7.59072 -15.89459,-16.62748 -27.88057,-38.92713 -23.31576,-43.37841 -45.752,-57.33333 -92.17859,-57.33333 -22.14879,0 -34.88035,-2.40224 -49.55343,-9.34993 -18.21272,-8.62372 -31.86474,-23.6932 -38.3949,-42.38136 -1.62577,-4.65268 -4.18026,-9.76651 -5.67664,-11.36406 -6.29268,-6.71816 -7.47864,-18.964 -2.55422,-26.37413 3.30852,-4.97857 12.9528,-10.53051 18.29256,-10.53051 5.26457,0 12.23558,4.39713 14.92699,9.41555 3.14992,5.87337 3.05267,13.7638 -0.2596,21.06339 -1.45056,3.19675 -2.63738,6.58805 -2.63738,7.53623 0,0.94818 -1.8,2.35144 -4,3.11837 -2.2,0.76692 -4,1.76751 -4,2.22353 0,1.66005 8.16349,12.64293 9.39739,12.64293 1.58952,0 1.5826,-0.33563 -0.098,-4.75598 -1.48989,-3.91869 -0.61444,-8.57736 1.61183,-8.57736 0.769,0 4.17857,2.02466 7.57682,4.49924 15.27779,11.12519 25.27463,13.82753 57.51196,15.54664 24.59355,1.3115 40.90291,3.44761 57.33333,7.50921 14.02535,3.46707 52.04345,20.39785 58,25.82941 1.46667,1.3374 25.46667,14.07019 53.33333,28.29509 45.1565,23.05072 75.58768,40.0495 82.29043,45.96721 1.73149,1.52871 1.96407,2.63197 0.95308,4.52102 -0.90065,1.68289 -0.88664,3.34098 0.0429,5.07785 1.90883,3.56669 1.73194,10.41476 -0.28642,11.0882 -0.95496,0.31862 -1.66667,2.7859 -1.66667,5.77778 0,4.58205 -0.52728,5.46667 -4.30448,7.22168 -5.16307,2.39893 -5.43512,3.65807 -1.14294,5.28995 1.77058,0.67318 3.60332,2.43409 4.07275,3.91314 0.46943,1.47906 6.07078,6.73972 12.44743,11.69036 23.97449,18.6131 52.11269,50.1541 67.5984,75.77321 8.86586,14.66743 13.34018,24.82727 20.69028,46.98152 5.97496,18.00936 9.49854,24.15566 13.93509,24.30745 0.71309,0.0244 6.80528,5.74436 13.5382,12.71102 6.73292,6.96667 12.78835,12.66667 13.45652,12.66667 0.66816,0 2.21626,2.1 3.44022,4.66667 2.56358,5.37587 4.46061,5.95913 5.42079,1.66666 0.36909,-1.65 0.49138,5.1 0.27174,15 -1.25375,56.51321 -27.83876,108.33868 -76.83205,149.77831 -47.71199,40.35587 -93.97864,61.10434 -162.89658,73.05164 -21.00944,3.6421 -82.12377,4.6675 -110.56795,1.8551 z m -245.79406,-5.5578 c -24.45938,-0.909 -55.89205,-3.4377 -74,-5.9532 -33.27304,-4.6223 -67.99537,-12.4131 -67.6283,-15.1741 0.0975,-0.7333 12.57277,-5.91869 27.72285,-11.52306 67.76879,-25.06928 119.15702,-51.01591 177.90545,-89.82694 38.15644,-25.20732 59.08244,-41.6734 93.70069,-73.73043 l 15.03403,-13.92174 3.17588,3.696 c 2.33927,2.72238 3.15278,5.22392 3.0882,9.49619 -0.0528,3.4936 0.74376,6.73005 2.00308,8.13844 2.56354,2.86699 3.08528,5.57165 1.69274,8.77498 -1.56344,3.59646 2.53285,7.41264 5.66372,5.27642 1.26957,-0.86624 4.53385,-2.78369 7.25395,-4.26099 10.68133,-5.80111 26.41931,-18.56445 41.09017,-33.32372 16.90181,-17.00367 28.96241,-32.43777 39.37274,-50.38584 6.32592,-10.90628 7.08806,-11.71387 10.70122,-11.33935 5.71245,0.59212 14.00393,13.0985 15.82322,23.86683 0.61095,3.61617 2.40736,6.82902 5.48765,9.81455 2.51864,2.44117 4.57936,5.57079 4.57936,6.95471 0,5.14593 3.51013,1.12091 9.69544,-11.11764 13.09492,-25.91024 17.0825,-57.11516 10.85861,-84.97446 -1.03042,-4.61236 -2.79202,-10.16236 -3.91468,-12.33333 -1.34011,-2.59149 -1.52768,-3.94723 -0.54611,-3.94723 3.12336,0 9.54334,5.90874 19.99325,18.4011 19.44002,23.23962 32.08279,48.03353 37.45509,73.45369 3.78562,17.91246 2.91831,46.05199 -1.95665,63.48272 -4.14774,14.83052 -12.15804,33.51373 -18.88352,44.04389 -9.40046,14.71843 -30.18826,39.28938 -41.82193,49.43307 -53.35357,46.52034 -141.14223,80.11764 -241.54615,92.44144 -26.87326,3.2984 -62.41979,5.2656 -82,4.538 z m 644.17009,-2.5585 c -25.4223,-3.9534 -48.99917,-12.073 -71.77045,-24.71701 -13.46369,-7.47588 -31.03121,-18.97087 -32.4153,-21.21038 -0.47637,-0.77077 7.13227,-9.38589 16.90809,-19.14471 36.98936,-36.92507 64.96556,-79.48355 87.13796,-132.55771 3.4605,-8.28358 6.5374,-14.81553 6.8375,-14.51544 0.3001,0.30009 -1.2587,9.05783 -3.4641,19.46165 -9.8257,46.35345 -8.2455,80.90547 5.1818,113.30189 11.8683,28.63507 36.7627,53.62573 67.3536,67.61401 6.2532,2.8594 11.3751,5.6258 11.3818,6.1475 0.017,1.2971 -9.0674,3.6474 -22.6544,5.8613 -14.3011,2.3302 -48.7905,2.2013 -64.4965,-0.2411 z M 729.33329,952.30483 c 0,-0.73433 6.57418,-7.96515 14.60928,-16.06848 21.76984,-21.9547 36.42301,-42.93447 47.21321,-67.59784 16.29942,-37.25592 19.6667,-79.49615 9.42037,-118.17207 -4.35108,-16.42365 -16.83257,-41.48725 -28.11989,-56.46648 -18.57004,-24.64403 -50.21582,-52.54431 -78.05671,-68.81818 -4.91356,-2.87213 -9.15717,-5.663 -9.43024,-6.20193 -0.76549,-1.51075 3.13033,-17.64655 4.26056,-17.64655 1.39141,0 47.39996,29.07627 62.77009,39.66915 17.42414,12.00849 30.87197,23.39619 44.33317,37.54161 35.26835,37.061 52.7738,86.8221 45.77578,130.12256 -5.88706,36.42639 -21.71972,65.43962 -52.77562,96.71093 -17.24496,17.36456 -60,50.80419 -60,46.92728 z M 395.71193,902.99995 c -8.43182,-9.66948 -25.13578,-43.12294 -31.45711,-63 -6.85624,-21.55906 -8.52231,-32.97037 -8.37078,-57.33333 0.13196,-21.2152 2.13391,-42.66666 3.98185,-42.66666 0.49086,0 1.90682,1.71716 3.14659,3.81592 3.94957,6.68608 18.74346,19.37126 27.77693,23.81761 15.40252,7.58125 23.11087,8.97289 49.87723,9.00465 13.2,0.0157 27.75,-0.45131 32.33333,-1.03773 7.15795,-0.91582 8.33333,-0.76887 8.33333,1.04185 0,3.22303 4.1108,4.16682 6.12876,1.4071 1.08608,-1.48531 2.59642,-2.05643 4.00691,-1.51518 2.04998,0.78665 1.99306,1.15688 -0.6026,3.91984 -3.56621,3.79605 -3.62771,6.44365 -0.2213,9.52642 1.73074,1.56629 2.39247,3.40034 1.91429,5.30558 -1.37317,5.47115 2.19642,6.46914 11.63355,3.25251 4.66055,-1.58854 9.97373,-3.6466 11.80706,-4.57347 1.83333,-0.92687 7.23333,-3.2691 12,-5.20494 4.76666,-1.93584 13.76666,-6.43385 20,-9.99556 6.23333,-3.56171 11.59071,-6.23343 11.90528,-5.93716 1.97672,1.86173 -17.155,22.75894 -40.19263,43.90163 -27.67626,25.39978 -49.4676,42.90452 -79.04598,63.49676 -14.19607,9.8832 -39.22663,25.10749 -41.27972,25.10749 -0.90217,0 -2.55591,-1.05 -3.67499,-2.33333 z M 1012.9771,789.33329 c 0.7998,-25.8142 -0.9009,-48.36661 -5.0531,-67.00741 -2.7992,-12.56712 -11.12081,-40.04555 -13.32885,-44.01299 -1.05004,-1.88671 -0.31309,-3.2766 3.71408,-7.00483 2.76327,-2.55811 6.33657,-5.90295 7.94077,-7.43299 l 2.9167,-2.78189 3.2317,6.45339 c 4.2802,8.54693 8.4912,21.03794 11.8107,35.03393 1.4897,6.2807 3.5928,13.51946 4.6735,16.08612 l 1.9651,4.66667 2.5761,-3.14771 c 1.4169,-1.73124 2.5761,-2.88692 2.5761,-2.56818 0,1.78713 -4.3917,29.529 -6.031,38.09647 -2.2627,11.8264 -11.2918,42.33874 -15.0777,50.95275 l -2.637,6 z M 417.66754,749.93976 c -20.87327,-5.62068 -35.45136,-20.85209 -37.32405,-38.99674 -0.55809,-5.40736 -0.34835,-7.10343 0.79132,-6.39908 0.90055,0.55657 1.91572,-0.0553 2.42139,-1.45947 1.17137,-3.2527 5.23587,-7.08451 7.51471,-7.08451 1.017,0 2.93508,-1.2 4.2624,-2.66667 1.32731,-1.46666 3.79208,-2.66666 5.47725,-2.66666 1.68517,0 4.50541,-0.65678 6.2672,-1.45951 2.96181,-1.34949 3.26753,-2.4299 4.05584,-14.33333 0.46892,-7.08061 0.85568,-17.74611 0.85948,-23.70113 0.008,-13.2209 4.34789,-39.06202 8.77703,-52.26638 4.64237,-13.84004 14.57933,-33.28333 22.23432,-43.50508 8.47938,-11.32256 10.27749,-11.40576 8.67094,-0.40123 -0.66912,4.58333 -0.89606,15.53333 -0.50431,24.33333 0.64511,14.49096 2.10489,23.23073 8.35136,50 1.11228,4.76666 2.31529,17.06666 2.67336,27.33333 0.35807,10.26666 0.88609,19.40212 1.17337,20.30102 0.29239,0.91487 4.84102,-2.60694 10.3325,-8 9.83936,-9.66302 25.29381,-20.00384 28.88214,-19.3255 1.05444,0.19933 3.75444,3.82502 6,8.05708 2.30707,4.34797 5.62771,8.49107 7.63477,9.52576 3.24402,1.67237 4.63099,1.39683 16,-3.17863 25.21726,-10.14868 37.25811,-17.15757 53.51942,-31.15325 8.53641,-7.34706 9.25782,-7.7195 8.41009,-4.34186 -1.25862,5.01473 -12.72271,25.11101 -19.4614,34.11538 -6.93897,9.27198 -18.78905,21.59056 -27.14713,28.22039 -9.86087,7.8219 -21.35772,13.77205 -40.99367,21.21614 -30.19693,11.4478 -36.39766,14.97692 -49.51724,28.1825 l -11.63801,11.7143 -10.36199,-0.0878 c -5.69909,-0.0483 -13.51158,-0.93586 -17.36109,-1.97245 z m 617.90496,-46.98142 c -0.9148,-13.01859 -6.1142,-39.13319 -10.4113,-52.29171 -4.0053,-12.26503 -15.6945,-36.5901 -23.1473,-48.16961 -25.01653,-38.86801 -65.65465,-75.04847 -108.09017,-96.23355 -39.04828,-19.49407 -77.02204,-28.07261 -111.96595,-25.29388 -8.7768,0.69793 -16.47648,0.81663 -17.11039,0.26377 -1.40747,-1.2275 10.47794,-8.21445 20.4859,-12.04282 11.35883,-4.34512 30.19682,-7.82042 42.49554,-7.83972 50.94262,-0.0799 104.15854,24.28697 151.34021,69.29682 10.37709,9.89941 18.60847,19.53826 32.75896,38.36035 3.9938,5.31225 7.7438,9.65864 8.3333,9.65864 1.5334,0 1.327,-3.68501 -0.2614,-4.66666 -0.7333,-0.45323 -1.3333,-2.31254 -1.3333,-4.13181 0,-10.11353 -26.72316,-46.65274 -49.98997,-68.35247 C 933.6901,468.88558 895.0477,448.39785 850.89818,439.071 c -15.33493,-3.23959 -19.61194,-3.57357 -46.23156,-3.61003 l -29.33333,-0.0402 -16.52972,4.98209 c -9.09135,2.74015 -16.81058,4.70124 -17.15385,4.35797 -3.03716,-3.03716 28.48879,-19.38501 44.35023,-22.9979 15.56216,-3.54473 47.20011,-3.19751 65.66538,0.72065 61.46181,13.04166 115.87746,50.04768 158.66057,107.89907 5.61,7.58589 7.6372,9.48861 8.6291,8.09954 0.9622,-1.34748 1.0839,-1.16428 0.4719,0.71058 -0.4569,1.39969 0.018,3.48066 1.0647,4.66667 2.2212,2.51653 10.6759,27.62866 12.7156,37.76793 6.8288,33.94582 8.7927,52.49306 8.7927,83.03924 0,28.96116 -1.7417,47.52561 -4.6261,49.30826 -0.5415,0.33467 -1.3521,-4.62278 -1.8013,-11.01655 z M 663.33329,395.50014 c -2.2,-1.01889 -6.09231,-4.04863 -8.64958,-6.73277 -4.52929,-4.754 -4.83469,-4.85712 -11.80505,-3.98623 -6.72295,0.83997 -7.07265,0.74264 -5.78533,-1.61024 2.97129,-5.43075 15.48693,-18.07944 20.33813,-20.55434 10.19914,-5.20321 22.85378,-2.58613 27.95581,5.78148 2.97975,4.88696 3.44089,14.58058 0.92637,19.47341 -3.80708,7.40792 -15.25284,11.20752 -22.98035,7.62869 z"
       id="path4796" />
    <path
       style="fill:#06324a"
       d="m 653.99996,1029.1735 c -26.79088,-1.865 -55.33333,-5.827 -55.33333,-7.6809 0,-0.4952 10.35,-5.0223 23,-10.0602 26.01147,-10.3592 45.0339,-19.51064 68.39698,-32.90486 9.35792,-5.36497 26.05583,-13.13464 40,-18.61234 24.88469,-9.77547 46.37174,-20.37684 59.72714,-29.46843 7.72647,-5.25975 11.54254,-5.83314 11.54254,-1.73435 0,2.7342 -2.40886,7.3579 -5.2664,10.10865 -1.79212,1.72514 -2.15912,4.19055 -1.84173,12.37219 0.37867,9.76115 0.24844,10.28513 -2.91441,11.72622 -3.04903,1.38923 -4.6914,5.08046 -2.2605,5.08046 3.20858,0 23.98499,-9.91472 34.68075,-16.55001 41.53587,-25.76748 73.06325,-63.71007 86.16052,-103.69248 6.49739,-19.83477 8.76583,-34.46905 8.77083,-56.58284 0.006,-28.18972 -5.47227,-53.44889 -16.73897,-77.17465 -13.05083,-27.48281 -38.88009,-56.37642 -66.5901,-74.49025 -22.68157,-14.82678 -36.32069,-20.82911 -77.37503,-34.05138 -27.41662,-8.83 -41.84032,-15.89948 -53.81932,-26.37842 -8.39147,-7.34065 -14.5942,-16.36359 -24.74639,-35.99786 -12.36489,-23.91364 -27.95622,-41.37142 -44.25623,-49.55421 -12.81302,-6.43228 -23.85551,-8.47206 -48.46968,-8.95339 -17.91978,-0.35042 -25.74637,-1.08002 -33.73397,-3.14471 -23.12697,-5.97802 -40.41006,-19.39127 -50.20718,-38.96532 -2.9657,-5.92528 -5.39218,-11.82125 -5.39218,-13.10217 0,-1.28091 -1.79862,-4.5922 -3.99693,-7.35842 -10.17882,-12.80837 -6.93095,-27.96164 7.14535,-33.33743 7.06347,-2.69757 14.67395,-1.15627 19.4633,3.94175 7.24435,7.71126 3.88129,25.77081 -5.87051,31.52452 -2.60767,1.53855 -4.74121,3.10412 -4.74121,3.47904 0,3.00737 9.66917,17.60465 15.66392,23.64741 10.23465,10.3166 22.72934,16.29577 39.64621,18.97218 12.51077,1.97932 13.2502,1.96301 14.92636,-0.32926 1.89905,-2.59711 2.34034,-9.69569 0.74309,-11.95333 -0.53877,-0.76153 -3.07958,-2.75608 -5.64625,-4.43233 l -4.66666,-3.04774 24.66666,0.70532 c 38.7909,1.10919 62.83369,7.40912 96.32863,25.24098 45.19518,24.06076 55.90368,29.72033 75.67136,39.99322 12.1,6.28814 23.2,12.33903 24.66667,13.44642 2.65019,2.00099 2.64813,2.02665 -0.33334,4.15501 -1.65,1.17787 -3,3.02751 -3,4.11031 0,1.08279 -1.5,4.92883 -3.33333,8.54673 -1.83333,3.61791 -3.33333,7.72938 -3.33333,9.1366 0,1.40722 -0.89318,4.27717 -1.98484,6.37766 -1.85922,3.57736 -1.79593,3.96703 1,6.15673 1.64166,1.28571 6.58484,4.3872 10.98484,6.89221 56.72507,32.29475 91.53386,62.81548 120.25032,105.4368 8.57829,12.732 16.33905,29.31297 22.46649,47.99999 8.37658,25.54625 10.3916,39.14241 10.27553,69.33333 -0.0603,15.67486 0.42967,25.96876 1.28505,27 0.76035,0.91667 2.69128,1.66667 4.29097,1.66667 1.59968,0 4.89097,2.04537 7.31397,4.54527 2.51314,2.59291 6.32396,4.90519 8.8719,5.38319 2.45655,0.46085 6.06645,1.668 8.022,2.68255 1.95555,1.01455 4.33186,1.54674 5.28069,1.18264 4.40151,-1.68902 -5.3367,28.02251 -15.75786,48.07761 -26.15969,50.34327 -88.44171,99.86739 -153.55291,122.09902 -20.62115,7.0409 -31.98903,9.8963 -55.51595,13.9445 -34.72858,5.9757 -62.48284,7.243 -100.56353,4.5921 z m -279.99998,-7.4392 c -26.26313,-1.7792 -54.97115,-4.8549 -71.8512,-7.6979 -19.8869,-3.3494 -47.94528,-9.5377 -51.2345,-11.2997 -1.02162,-0.5472 9.26453,-5.003 24.66667,-10.6851 30.80325,-11.36381 44.95409,-17.26498 75.0857,-31.31217 48.19054,-22.46615 82.59502,-42.82166 142.93497,-84.56789 8.71552,-6.02984 15.96542,-10.20542 16.42583,-9.46046 0.45329,0.73344 0.63255,2.97349 0.39835,4.97787 -0.31645,2.70822 0.32241,3.97279 2.48713,4.92303 1.60213,0.70328 3.53927,2.65328 4.30475,4.33333 0.76548,1.68005 2.26014,3.05464 3.32145,3.05464 3.44664,0 33.02168,-15.52079 50.79417,-26.65646 27.01259,-16.92521 41.1203,-28.13393 61.72062,-49.03768 21.47352,-21.78981 20.53175,-21.52751 25.03443,-6.97252 1.24774,4.03333 2.98478,8.23333 3.86008,9.33333 0.87531,1.1 2.36068,4.68888 3.30082,7.97528 0.94014,3.28641 2.84366,7.41733 4.23003,9.17982 1.38637,1.76248 2.52068,5.07104 2.52068,7.35235 0,4.04748 0.28404,3.85765 11.74047,-7.84648 37.08525,-37.88703 54.55466,-98.31097 40.47808,-140.00726 -1.42659,-4.22571 -1.89854,-7.32037 -1.11639,-7.32037 0.74522,0 3.8021,2.56558 6.79306,5.70128 38.04071,39.88168 55.04947,85.67379 48.26931,129.95391 -4.2687,27.87821 -16.28768,54.59014 -35.55106,79.01146 -15.07812,19.11543 -17.75817,21.94298 -32.61347,34.40845 -34.56507,29.00445 -84.928,53.72175 -143.33333,70.34564 -58.01657,16.5132 -139.31031,25.9282 -192.66665,22.3136 z m 674.06632,-0.516 c -26.129,-2.5162 -49.56341,-9.1062 -72.73302,-20.4533 -16.61706,-8.13813 -40.63733,-22.81485 -42.63845,-26.05273 -0.58183,-0.94142 6.79024,-9.44966 18.88453,-21.79496 20.44678,-20.87116 36.69438,-41.25268 50.96374,-63.93066 7.8087,-12.41008 29.0336,-53.79769 33.9256,-66.15313 1.2702,-3.2082 2.5347,-5.60786 2.81,-5.33258 0.2753,0.27529 -1.0688,7.70018 -2.9869,16.49976 -3.1379,14.39598 -3.4943,18.8719 -3.5563,44.66591 -0.063,26.0313 0.2218,29.76985 3.0929,40.66667 4.0753,15.46661 11.4046,32.39477 18.7618,43.33333 12.8947,19.1716 35.1328,37.49999 58.1768,47.94869 4.7115,2.1362 8.5663,4.1615 8.5663,4.5005 0,0.9916 -18.3638,4.6986 -30.6317,6.1834 -12.7275,1.5404 -26.0615,1.5151 -42.6353,-0.081 z M 740.66662,941.25982 c 2.2,-2.50426 8.51486,-9.3622 14.03303,-15.23987 24.53934,-26.13807 43.99082,-64.54049 49.90608,-98.52799 2.56337,-14.72845 2.6611,-49.61916 0.17784,-63.49201 -2.48218,-13.86678 -9.09727,-32.9414 -16.13982,-46.5392 -16.67154,-32.18949 -52.99923,-68.58369 -91.93171,-92.10002 -8.18592,-4.94453 -11.33377,-7.55481 -10.79713,-8.95327 0.41661,-1.08567 1.13499,-4.3348 1.5964,-7.22027 0.46141,-2.88548 1.31566,-5.54097 1.89834,-5.90108 1.43523,-0.88703 58.79947,35.87764 74.5903,47.80484 16.29238,12.30602 38.94917,34.80864 47.90163,47.57568 14.09769,20.1046 25.22842,46.59621 28.781,68.49997 6.30127,38.85112 -3.89224,77.3054 -29.74034,112.19325 -15.81493,21.34582 -47.01106,49.85438 -69.60895,63.61207 l -4.66667,2.84109 z M 389.85116,892.99995 c -16.00271,-25.821 -27.66764,-56.21736 -31.98277,-83.34043 -2.88433,-18.12964 -2.17322,-19.63566 6.23875,-13.21263 8.9707,6.84963 18.99551,11.46126 33.10756,15.23018 11.28467,3.01381 15.44565,3.42049 35.45194,3.46495 18.82585,0.0418 25.01844,-0.4671 36.54572,-3.00352 24.49835,-5.39052 60.3609,-19.31473 77.21879,-29.98142 3.17048,-2.0061 6.38787,-3.43966 7.14976,-3.1857 2.38816,0.79605 -13.38937,17.75244 -34.83302,37.43565 -24.44871,22.44158 -44.15886,38.51286 -69.11076,56.35158 -17.34986,12.40384 -49.0256,32.57467 -51.1544,32.57467 -0.54336,0 -4.42756,-5.55 -8.63157,-12.33333 z M 1014.3563,787.13451 c 0.4303,-20.68939 1.9602,-27.71146 5.8178,-26.70269 1.8744,0.49018 2.9839,-0.15728 3.7736,-2.2021 1.0865,-2.81353 1.1487,-2.8212 2.1746,-0.26809 1.1774,2.93034 -5.5357,31.19924 -9.6502,40.63683 l -2.4722,5.6706 z M 425.99997,750.71482 c -13.40381,-1.5419 -33.99999,-13.1649 -33.99999,-19.18714 0,-2.05032 7.14933,-4.80654 12.66666,-4.88327 1.46667,-0.0204 4.13329,-1.16429 5.92583,-2.54199 l 3.25916,-2.5049 -0.31388,-40.46545 c -0.27583,-35.56044 0.0145,-42.37207 2.39558,-56.1948 3.24027,-18.81098 7.37333,-31.62708 15.25195,-47.2944 4.74013,-9.42616 17.06584,-28.30941 18.4786,-28.30962 0.18485,-3e-5 0.35757,9.74997 0.38381,21.66667 0.0389,17.68176 0.60888,24.11899 3.09886,35.00004 8.17201,35.7112 8.44527,37.43432 8.71513,54.95545 0.14928,9.69217 0.70631,18.05701 1.23784,18.58854 0.53154,0.53154 4.23674,-2.26326 8.23379,-6.21066 3.99704,-3.94739 7.46379,-6.91224 7.70389,-6.58854 2.97607,4.01239 4.96277,8.43396 4.96277,11.04504 0,6.92624 2.32468,6.6538 26.54042,-3.11044 41.48102,-16.72592 56.83631,-24.8417 72.79291,-38.47344 5.13333,-4.38541 9.55376,-7.75535 9.82317,-7.48876 0.26941,0.26659 -2.34375,5.72541 -5.80704,12.13071 -15.36757,28.42214 -35.39982,49.19376 -58.93084,61.10593 -4.99691,2.5296 -17.18529,7.65052 -27.08529,11.37981 -28.19884,10.62242 -39.91806,18.42928 -53.65361,35.74183 -2.51057,3.16437 -6.07793,3.43413 -21.67972,1.63939 z M 1036.2067,692.9804 c -8.0432,-51.6749 -28.0012,-91.72116 -64.87342,-130.16985 -31.46585,-32.81121 -65.87649,-55.5587 -106.66666,-70.51304 -25.8166,-9.46478 -38.5977,-11.59565 -69.66445,-11.6145 -14.84878,-0.009 -26.99878,-0.39488 -27,-0.8575 -10e-4,-0.46263 4.34778,-2.95628 9.66445,-5.54146 24.47408,-11.90029 51.51857,-14.36931 84.05805,-7.67405 65.45617,13.46813 128.16393,63.36703 165.15553,131.42047 13.8564,25.49143 13.7864,25.1567 13.7864,65.96949 0,38.88602 -1.4508,48.31308 -4.4599,28.98044 z m -12.1151,-119.84831 c -12.6128,-24.46978 -27.11538,-44.12309 -48.09166,-65.17171 -26.29835,-26.38906 -50.70221,-43.43342 -79.68521,-55.65449 -29.82906,-12.57781 -51.88885,-17.43568 -84.4475,-18.59647 -23.9824,-0.85504 -36.58219,0.59233 -54.75503,6.28981 -6.79341,2.12985 -12.56495,3.65915 -12.82565,3.39845 -0.2607,-0.2607 2.11817,-2.25112 5.28637,-4.42315 35.60411,-24.40925 87.27887,-24.87728 144.88818,-1.31229 44.16562,18.06587 87.27332,53.93428 115.8312,96.37912 12.3188,18.30895 24.8219,47.94916 22.7934,54.03451 -0.2789,0.83692 -4.3263,-5.88778 -8.9941,-14.94378 z M 663.33329,394.73551 c -1.46666,-0.6025 -4.96777,-3.59356 -7.78023,-6.64682 -4.90315,-5.32293 -5.35581,-5.51505 -11,-4.66865 -3.23754,0.48549 -5.87794,0.36459 -5.86757,-0.26867 0.0412,-2.51639 13.93785,-16.74855 18.75158,-19.20433 6.13636,-3.13054 15.84107,-3.40022 21.2732,-0.59116 7.72028,3.99231 11.02455,17.76285 6.07487,25.31701 -3.91677,5.97774 -14.42737,8.9482 -21.45185,6.06262 z"
       id="path4795" />
    <path
       style="fill:#010d1b"
       d="m 644.66663,1027.9737 c -17.03833,-1.45 -43.1878,-5.3263 -43.91966,-6.5104 -0.30944,-0.5007 10.6459,-5.3223 24.34519,-10.7147 24.5922,-9.6801 43.33103,-18.43616 64.42341,-30.10317 5.9449,-3.28835 11.04763,-5.97882 11.33939,-5.97882 0.97123,0 -0.60693,5.94609 -2.6541,10 -1.11098,2.2 -2.42571,5.65 -2.92164,7.66666 l -0.90168,3.66667 7.81121,-0.0209 c 8.59448,-0.023 26.60412,-3.50068 45.14454,-8.71749 39.83342,-11.20812 79.99132,-32.49487 107.4901,-56.97795 21.8342,-19.4397 36.8871,-38.96089 48.54136,-62.95033 11.59532,-23.86811 16.62143,-46.68403 16.63012,-75.49201 0.0149,-49.50426 -18.34744,-92.90315 -54.51039,-128.83361 -12.61892,-12.53778 -18.85745,-17.40169 -36.81786,-28.70526 -15.921,-10.02005 -29.8668,-15.90966 -66.81135,-28.21587 -22.67053,-7.55154 -33.76755,-11.9984 -41.99999,-16.83049 -15.62692,-9.17231 -26.55037,-21.00192 -35.73141,-38.6955 -10.55694,-20.34522 -18.00191,-31.36057 -28.54861,-42.23965 -10.90583,-11.24952 -16.59887,-14.87713 -31.0551,-19.78832 -9.47274,-3.21815 -13.24167,-3.67398 -37.85353,-4.57808 -24.02156,-0.88242 -28.62573,-1.41942 -38,-4.43203 -25.3035,-8.13181 -41.54374,-23.56972 -49.4222,-46.98057 -1.53236,-4.55341 -4.38942,-10.18434 -6.34901,-12.51318 -1.95959,-2.32884 -3.93594,-5.72059 -4.39188,-7.53721 -1.25002,-4.98049 0.41559,-12.66994 3.38837,-15.64272 2.56295,-2.56295 2.88078,-2.57556 10.376,-0.41148 4.25263,1.22785 10.43206,2.43563 13.73206,2.68394 5.90338,0.44421 6.00689,0.53391 6.42807,5.57075 0.596,7.12763 -3.10701,14.52057 -9.33878,18.64455 -6.04264,3.99883 -5.99548,5.10326 0.70328,16.46852 5.15663,8.74885 16.58628,19.54827 26.18928,24.74519 13.18539,7.13564 23.07464,8.9083 56.90743,10.20075 30.63151,1.17016 47.76358,3.44962 55.32845,7.36157 2.00741,1.03807 4.6069,1.8874 5.77665,1.8874 3.58067,0 8.67228,6.18076 8.67228,10.52737 0,2.19006 0.6409,4.37802 1.42423,4.86214 0.78333,0.48412 1.12859,1.65065 0.76725,2.59229 -2.24119,5.84043 19.30831,20.5134 70.47518,47.98627 90.43666,48.55789 116.97267,66.71769 146.70979,100.40021 26.45884,29.96929 41.69336,58.26518 50.48019,93.75953 11.7031,47.27463 3.01718,108.62568 -21.32947,150.65602 -3.22329,5.56445 -5.86052,10.53329 -5.86052,11.04186 0,0.50858 -2.70351,4.95467 -6.0078,9.88022 -3.89372,5.80417 -5.41858,9.12308 -4.33334,9.43167 4.34067,1.23427 15.67447,8.97535 15.67447,10.70579 0,1.07065 0.98281,3.03262 2.18402,4.35994 2.75739,3.04688 2.34353,3.57229 -13.20369,16.76282 -41.23667,34.98593 -89.64419,56.65971 -150.31365,67.30091 -21.56339,3.7821 -26.0641,4.1209 -59.33333,4.467 -19.8,0.2059 -42,-0.1362 -49.33333,-0.7603 z m -279.99999,-7.4379 c -2.93333,-0.2746 -12.83333,-1.1387 -21.99999,-1.9203 -28.35067,-2.4172 -81.95225,-12.0304 -89.33333,-16.0215 -1.77778,-0.9612 -1.77778,-1.1618 0,-1.8051 32.58944,-11.79214 53.62679,-19.86169 68.66666,-26.33925 26.5072,-11.41646 82.69087,-39.35646 99.99999,-49.72975 20.9641,-12.5637 20.1734,-12.24633 23.34957,-9.37193 2.62503,2.37562 3.14376,2.28141 20.33875,-3.69391 30.24406,-10.50992 57.45175,-23.26601 90.35762,-42.36338 9.1414,-5.30533 19.67242,-11.25968 23.40227,-13.23188 l 6.78155,-3.58582 -0.61577,6.40847 c -0.42141,4.38567 0.0283,7.39147 1.4248,9.52277 1.40875,2.15002 2.04057,6.46736 2.04057,13.94354 0,5.95608 0.42991,11.52485 0.95536,12.37504 1.43649,2.32428 7.80542,0.58402 19.48903,-5.32522 42.92117,-21.70831 90.84731,-67.96026 106.79494,-103.06429 1.58247,-3.48334 3.53813,-6.33334 4.34592,-6.33334 2.44001,0 4.66871,3.01149 4.66871,6.30852 0,1.70968 0.86334,3.4398 1.91852,3.84472 1.05519,0.40491 2.30287,2.48608 2.77261,4.62482 0.56593,2.57664 1.68137,3.88861 3.3061,3.88861 1.83648,0 3.18565,-2.20456 5.37445,-8.7819 5.40633,-16.24603 6.74046,-23.79928 7.52763,-42.61811 0.82032,-19.6111 -1.30473,-36.35965 -5.68901,-44.8379 -2.92091,-5.64842 -1.57443,-4.58986 4.9666,3.90458 34.86678,45.2794 42.19389,96.13582 21.17896,146.99999 -10.70147,25.90166 -35.32241,57.79863 -59.93561,77.64795 -54.57322,44.01056 -134.16134,73.28607 -235.21407,86.52047 -16.93721,2.2182 -30.08619,2.8971 -61.53949,3.1771 -22,0.1959 -42.4,0.1315 -45.33334,-0.143 z M 587.57745,891.74995 c -0.42563,-1.06365 -0.74158,-0.7477 -0.80556,0.80555 -0.0579,1.40556 0.25724,2.19306 0.7003,1.75 0.44305,-0.44305 0.49042,-1.59305 0.10526,-2.55555 z m 449.66045,127.54335 c -25.8555,-4.0309 -45.74114,-10.503 -67.7437,-22.04838 -12.78028,-6.70619 -37.49426,-22.0149 -37.49426,-23.22526 0,-0.17751 7.99745,-8.35457 17.77211,-18.17123 30.05006,-30.1792 48.92626,-56.18817 69.81925,-96.20193 6.9823,-13.37227 13.6057,-26.58811 14.7188,-29.36853 2.9334,-7.32794 3.4564,-5.22844 1.1621,4.66473 -2.5254,10.8893 -4.8056,32.92215 -4.8056,46.43537 0,57.12483 28.7459,104.39143 77.6627,127.70003 5.6812,2.707 10.3312,5.3293 10.3334,5.8273 0,0.9432 -8.3213,2.8763 -21.9961,5.1073 -11.2056,1.8281 -45.7718,1.4097 -59.4287,-0.7194 z M 745.33329,938.10041 c 0,-0.41128 4.57262,-5.70214 10.16139,-11.75746 20.09225,-21.76958 38.47236,-53.97608 46.33803,-81.19571 1.83082,-6.33565 4.02416,-17.73565 4.8741,-25.33333 1.99654,-17.84722 2.45306,-20.07851 3.92228,-19.17049 0.66969,0.41389 6.5021,1.04839 12.96091,1.40999 18.44703,1.03277 16.77619,0.14114 15.74409,8.40179 -5.47236,43.79935 -38.12123,89.44897 -89.66747,125.37297 -2.38333,1.66102 -4.33333,2.68352 -4.33333,2.27224 z m -355.48446,-46.4338 c -9.43064,-15.21208 -17.5801,-32.45226 -23.00541,-48.66795 -4.6222,-13.81531 -9.51011,-36.22659 -9.51011,-43.60432 v -4.85338 l 5,4.00514 c 2.75,2.20283 9.5,6.04826 15,8.5454 36.52416,16.58291 86.24966,14.44656 134.66666,-5.78567 18.71071,-7.81872 31.25367,-13.72169 34.31696,-16.15024 7.39831,-5.86531 -9.26296,12.02238 -25.97974,27.89208 -24.71077,23.45862 -48.66415,43.34535 -72.84539,60.47818 -19.24548,13.63576 -46.10097,30.4741 -48.60318,30.4741 -0.7666,0 -4.8345,-5.55 -9.03979,-12.33334 z m 32.15114,-142.16872 -3.99999,-0.85322 -1.04443,-35.32236 c -1.13458,-38.37127 -0.68561,-75.27901 0.96087,-78.98901 0.5697,-1.2837 2.47084,-2.33334 4.22621,-2.33334 1.75487,0 3.19068,-0.6785 3.19068,-1.50779 0,-2.19687 9.10544,-0.44508 12.18834,2.34491 2.40204,2.17382 2.71252,2.10409 6.41175,-1.44001 2.25528,-2.16068 4.23934,-5.75503 4.72552,-8.56077 0.46092,-2.65999 1.64269,-6.31781 2.62615,-8.1285 l 1.78811,-3.29216 1.41297,5.29216 c 4.92704,18.45383 5.78466,24.30413 6.45318,44.02043 0.67655,19.95356 0.53533,21.76755 -2.09616,26.9257 -3.5911,7.03913 -9.52598,25.14241 -9.45788,28.84955 0.0422,2.29914 1.35493,1.408 7,-4.752 7.43735,-8.11579 24.15185,-20.60917 34.79697,-26.00925 3.58359,-1.8179 16.92347,-7.74096 29.64419,-13.16236 37.16048,-15.83729 47.07791,-21.29347 62.17352,-34.2054 4.21666,-3.6067 7.66666,-6.17112 7.66666,-5.6987 0,0.47241 -2.48843,5.16361 -5.52984,10.42489 -16.28162,28.16524 -34.63276,46.87262 -57.11086,58.21952 -4.7216,2.38346 -16.40901,7.29142 -25.97201,10.90658 -28.00488,10.58683 -41.42517,18.97573 -51.11028,31.94855 l -4.84621,6.49131 -10.04873,-0.15775 c -5.5268,-0.0868 -11.84873,-0.54171 -14.04873,-1.01098 z m 616.39893,-54.83126 c -0.4219,-1.1 -2.0723,-8.6 -3.6674,-16.66667 -6.7266,-34.01682 -18.6926,-59.77465 -45.75537,-98.49219 -3.51146,-5.0237 -3.54649,-5.25949 -1.33692,-9 1.24796,-2.11262 3.28965,-3.84114 4.5371,-3.84114 1.24744,0 2.47745,-0.62814 2.73336,-1.39586 0.30356,-0.91066 2.08019,-0.71933 5.11113,0.55042 11.7065,4.90427 37.0674,51.52456 39.9897,73.51211 2.1039,15.83032 0.7724,61.54834 -1.6116,55.33333 z m -14.2501,-125.77427 c -7.2628,-13.53647 -20.1438,-31.75907 -35.97434,-50.89239 -6.6742,-8.06667 -12.14382,-15.81667 -12.15471,-17.22222 -0.0189,-2.44244 1.79991,-1.87763 2.14686,0.66666 0.0917,0.67223 0.24167,1.82223 0.33333,2.55556 0.0917,0.73333 1.63858,1.33333 3.43758,1.33333 5.9026,0 25.25108,24.91557 38.31048,49.33333 6.1808,11.55659 11.2278,23.63527 10.2743,24.58878 -0.2912,0.29114 -3.1592,-4.37224 -6.3735,-10.36305 z M 661.1637,392.42169 c -1.92661,-1.19569 -4.49233,-3.84892 -5.7016,-5.89605 -1.87701,-3.17752 -3.18514,-3.78084 -8.94142,-4.12386 l -6.74274,-0.4018 7.39254,-7.4401 c 8.48552,-8.54011 14.5554,-10.96978 24.31517,-9.73297 8.54058,1.08231 11.92517,3.34791 13.88848,9.29681 2.07663,6.29225 -0.0448,13.97037 -4.91941,17.80473 -4.29712,3.38011 -14.23021,3.63409 -19.29102,0.49324 z"
       id="path4794" />
  </g>
  <g
     inkscape:groupmode="layer"
     id="layer1"
     inkscape:label="title"
     style="display:inline">
    <path
       d="m 53.021763,62.33565 c -1.2,0 -2.12,0.784 -2.12,1.808 0,1.016 0.92,1.808 2.096,1.808 1.176,0 2.096,-0.792 2.096,-1.808 0,-1.008 -0.92,-1.808 -2.072,-1.808 z m -0.04,0.824 c 0.712,0 1.248,0.424 1.248,0.984 0,0.552 -0.536,0.984 -1.232,0.984 -0.696,0 -1.232,-0.432 -1.232,-0.984 0,-0.552 0.536,-0.984 1.216,-0.984 z m 4.672003,-0.736 h -1.112 c -0.144,0 -0.296,0.024 -0.352,0.064 -0.128,0.072 -0.208,0.208 -0.208,0.352 0,0.272 0.192,0.416 0.56,0.416 h 0.248 v 1.752 h -0.432 c -0.208,0 -0.272,0.008 -0.352,0.056 -0.128,0.072 -0.208,0.216 -0.208,0.352 0,0.272 0.192,0.416 0.56,0.416 h 2.376 c 0.376,0 0.568,-0.136 0.568,-0.416 0,-0.128 -0.064,-0.248 -0.176,-0.328 -0.088,-0.064 -0.168,-0.08 -0.392,-0.08 h -1.08 v -1.08 c 0.728,-0.576 1.048,-0.768 1.288,-0.768 0.104,0 0.176,0.032 0.288,0.128 0.128,0.112 0.216,0.152 0.336,0.152 0.232,0 0.432,-0.192 0.432,-0.424 0,-0.144 -0.064,-0.248 -0.232,-0.384 -0.256,-0.2 -0.52,-0.296 -0.808,-0.296 -0.4,0 -0.68,0.12 -1.304,0.552 z m 5.792003,0.248 c -0.296,-0.224 -0.688,-0.344 -1.096,-0.344 -1.096,0 -1.92,0.776 -1.92,1.808 0,1.024 0.832,1.808 1.92,1.808 0.4,0 0.76,-0.112 1.096,-0.352 v 0.36 c 0,0.376 -0.288,0.624 -0.72,0.624 h -0.872 c -0.208,0 -0.272,0.008 -0.352,0.056 -0.128,0.072 -0.208,0.216 -0.208,0.36 0,0.128 0.064,0.248 0.176,0.328 0.08,0.064 0.184,0.08 0.384,0.08 h 0.896 c 0.896,0 1.568,-0.632 1.56,-1.448 v -2.696 h 0.096 c 0.192,0 0.28,-0.016 0.352,-0.056 0.128,-0.08 0.208,-0.216 0.208,-0.36 0,-0.128 -0.064,-0.256 -0.176,-0.336 -0.088,-0.056 -0.16,-0.072 -0.384,-0.072 h -0.96 z m -1.08,0.48 c 0.6,0 1.08,0.432 1.08,0.968 0,0.56 -0.472,0.992 -1.08,0.992 -0.592,0 -1.072,-0.44 -1.072,-0.984 0,-0.544 0.48,-0.976 1.072,-0.976 z"
       id="text2-6-3"
       style="font-weight:bold;font-size:8px;font-family:'Nimbus Mono PS';-inkscape-font-specification:'Nimbus Mono PS Bold';text-align:center;text-anchor:middle;fill:#5c93a5;stroke:#a8cdd7;stroke-width:0.1;stroke-dasharray:none;stroke-opacity:1"
       inkscape:label="org"
       aria-label="org" />
    <path
       d="m 49.382709,65.888489 c 0.312,0 0.56,-0.232 0.56,-0.536 0,-0.296 -0.248,-0.536 -0.56,-0.536 h -0.144 c -0.304,0 -0.56,0.24 -0.56,0.536 0,0.296 0.248,0.536 0.56,0.536 z"
       id="text2-6-7"
       style="font-weight:bold;font-size:8px;font-family:'Nimbus Mono PS';-inkscape-font-specification:'Nimbus Mono PS Bold';text-align:center;text-anchor:middle;fill:#5c93a5;stroke:#a8cdd7;stroke-width:0.1;stroke-dasharray:none;stroke-opacity:1"
       inkscape:label="dot"
       aria-label="." />
    <path
       d="m 31.67134,61.014539 h -1.456 c -0.208,0 -0.28,0.016 -0.36,0.056 -0.128,0.08 -0.208,0.216 -0.208,0.36 0,0.136 0.064,0.256 0.184,0.336 0.08,0.064 0.176,0.08 0.384,0.08 h 0.592 v 3.168 h -0.944 c -0.208,0 -0.272,0.008 -0.352,0.056 -0.128,0.08 -0.208,0.216 -0.208,0.352 0,0.272 0.192,0.416 0.56,0.416 h 2.752 c 0.368,0 0.56,-0.144 0.56,-0.416 0,-0.128 -0.064,-0.248 -0.176,-0.328 -0.088,-0.064 -0.168,-0.08 -0.384,-0.08 h -0.944 z m 5.040003,4.824 h 0.968 c 0.376,0 0.56,-0.136 0.56,-0.416 0,-0.128 -0.064,-0.256 -0.176,-0.336 -0.088,-0.056 -0.16,-0.072 -0.384,-0.072 h -0.096 v -1.512 c 0,-0.728 -0.6,-1.16 -1.608,-1.16 -0.408,0 -0.992,0.096 -1.384,0.224 -0.176,0.064 -0.264,0.184 -0.264,0.36 0,0.232 0.184,0.416 0.416,0.416 0.08,0 0.192,-0.016 0.336,-0.048 0.384,-0.088 0.656,-0.128 0.928,-0.128 0.488,0 0.704,0.104 0.704,0.336 v 0.144 c -0.28,-0.048 -0.544,-0.072 -0.808,-0.072 -0.712,0 -1.264,0.2 -1.64,0.592 -0.2,0.208 -0.32,0.488 -0.32,0.736 0,0.584 0.664,1.056 1.488,1.056 0.44,0 0.904,-0.096 1.28,-0.272 z m 0.008,-1.08 c -0.432,0.248 -0.864,0.376 -1.296,0.376 -0.312,0 -0.568,-0.12 -0.568,-0.264 0,-0.112 0.096,-0.232 0.256,-0.336 0.216,-0.136 0.44,-0.192 0.76,-0.192 0.264,0 0.504,0.024 0.848,0.08 z m 3.312003,-2.32 h -0.784 c -0.168,0 -0.224,0.008 -0.296,0.032 -0.152,0.048 -0.272,0.216 -0.272,0.384 0,0.128 0.064,0.256 0.176,0.336 0.08,0.048 0.136,0.064 0.312,0.072 v 1.752 h -0.016 c -0.2,0 -0.28,0.008 -0.352,0.056 -0.128,0.072 -0.208,0.216 -0.208,0.352 0,0.128 0.064,0.256 0.176,0.336 0.08,0.056 0.184,0.08 0.384,0.08 h 0.896 c 0.368,0 0.56,-0.144 0.56,-0.416 0,-0.128 -0.064,-0.248 -0.176,-0.336 -0.088,-0.056 -0.16,-0.072 -0.384,-0.072 h -0.016 v -1.344 c 0.36,-0.376 0.608,-0.504 0.968,-0.504 0.48,0 0.688,0.16 0.688,0.52 v 1.328 c -0.304,0 -0.488,0.152 -0.488,0.408 0,0.28 0.192,0.416 0.568,0.416 h 0.712 c 0.368,0 0.56,-0.136 0.56,-0.416 0,-0.128 -0.064,-0.256 -0.176,-0.336 -0.08,-0.048 -0.136,-0.064 -0.312,-0.072 v -1.36 c 0,-0.456 -0.16,-0.792 -0.488,-1.024 -0.264,-0.192 -0.6,-0.288 -0.976,-0.288 -0.424,0 -0.688,0.104 -1.056,0.424 z m 6.456003,0.24 c -0.296,-0.224 -0.688,-0.344 -1.096,-0.344 -1.096,0 -1.92,0.776 -1.92,1.808 0,1.024 0.832,1.808 1.92,1.808 0.4,0 0.76,-0.112 1.096,-0.352 v 0.36 c 0,0.376 -0.288,0.624 -0.72,0.624 h -0.872 c -0.208,0 -0.272,0.008 -0.352,0.056 -0.128,0.072 -0.208,0.216 -0.208,0.36 0,0.128 0.064,0.248 0.176,0.328 0.08,0.064 0.184,0.08 0.384,0.08 h 0.896 c 0.896,0 1.568,-0.632 1.56,-1.448 v -2.696 h 0.096 c 0.192,0 0.28,-0.016 0.352,-0.056 0.128,-0.08 0.208,-0.216 0.208,-0.36 0,-0.128 -0.064,-0.256 -0.176,-0.336 -0.088,-0.056 -0.16,-0.072 -0.384,-0.072 h -0.96 z m -1.08,0.48 c 0.6,0 1.08,0.432 1.08,0.968 0,0.56 -0.472,0.992 -1.08,0.992 -0.592,0 -1.072,-0.44 -1.072,-0.984 0,-0.544 0.48,-0.976 1.072,-0.976 z"
       id="text2-6"
       style="font-weight:bold;font-size:8px;font-family:'Nimbus Mono PS';-inkscape-font-specification:'Nimbus Mono PS Bold';text-align:center;text-anchor:middle;fill:#21718c;stroke:#a8cdd7;stroke-width:0.1;stroke-dasharray:none;stroke-opacity:1"
       inkscape:label="lang"
       aria-label="lang" />
    <path
       d="m 18.501906,62.860908 c 0,-0.152 -0.008,-0.208 -0.032,-0.28 -0.04,-0.152 -0.2,-0.256 -0.376,-0.256 -0.128,0 -0.2,0.048 -0.272,0.184 -0.296,-0.12 -0.632,-0.184 -1.016,-0.184 -0.976,0 -1.68,0.448 -1.68,1.08 0,0.616 0.48,0.936 1.616,1.056 0.432,0.04 0.6,0.072 0.728,0.12 0.16,0.064 0.256,0.152 0.256,0.24 0,0.16 -0.424,0.296 -0.896,0.296 -0.424,0 -0.76,-0.096 -0.984,-0.28 -0.072,-0.24 -0.208,-0.352 -0.432,-0.352 -0.152,0 -0.272,0.056 -0.36,0.168 -0.064,0.088 -0.08,0.16 -0.08,0.368 v 0.256 c 0,0.368 0.144,0.536 0.44,0.536 0.104,0 0.176,-0.024 0.264,-0.088 0.312,0.144 0.72,0.216 1.184,0.216 1.048,0 1.808,-0.464 1.808,-1.104 0,-0.368 -0.216,-0.704 -0.576,-0.896 -0.24,-0.128 -0.576,-0.216 -1.168,-0.288 -0.512,-0.072 -0.56,-0.08 -0.664,-0.112 -0.12,-0.048 -0.192,-0.104 -0.192,-0.16 0,-0.112 0.384,-0.232 0.76,-0.232 0.328,0 0.592,0.072 0.8,0.216 0.144,0.248 0.24,0.312 0.44,0.312 0.136,0 0.264,-0.064 0.352,-0.168 0.064,-0.08 0.08,-0.16 0.08,-0.368 z m 5.152003,1.648 v -0.328 c 0,-1.072 -0.888,-1.856 -2.104,-1.856 -1.192,0 -2.096,0.792 -2.096,1.824 0,1.048 0.88,1.792 2.144,1.792 0.576,0 1.4,-0.136 1.76,-0.296 0.2,-0.08 0.296,-0.2 0.296,-0.368 0,-0.232 -0.176,-0.416 -0.408,-0.416 -0.088,0 -0.176,0.016 -0.28,0.04 -0.72,0.184 -0.928,0.216 -1.296,0.216 -0.664,0 -1.064,-0.192 -1.264,-0.608 z m -3.232,-0.736 c 0.128,-0.368 0.592,-0.624 1.136,-0.624 0.544,0 1,0.256 1.136,0.624 z m 6.672003,2.048 h 0.968 c 0.376,0 0.56,-0.136 0.56,-0.416 0,-0.128 -0.064,-0.256 -0.176,-0.336 -0.088,-0.056 -0.16,-0.072 -0.384,-0.072 h -0.096 v -1.512 c 0,-0.728 -0.6,-1.16 -1.608,-1.16 -0.408,0 -0.992,0.096 -1.384,0.224 -0.176,0.064 -0.264,0.184 -0.264,0.36 0,0.232 0.184,0.416 0.416,0.416 0.08,0 0.192,-0.016 0.336,-0.048 0.384,-0.088 0.656,-0.128 0.928,-0.128 0.488,0 0.704,0.104 0.704,0.336 v 0.144 c -0.28,-0.048 -0.544,-0.072 -0.808,-0.072 -0.712,0 -1.264,0.2 -1.64,0.592 -0.2,0.208 -0.32,0.488 -0.32,0.736 0,0.584 0.664,1.056 1.488,1.056 0.44,0 0.904,-0.096 1.28,-0.272 z m 0.008,-1.08 c -0.432,0.248 -0.864,0.376 -1.296,0.376 -0.312,0 -0.568,-0.12 -0.568,-0.264 0,-0.112 0.096,-0.232 0.256,-0.336 0.216,-0.136 0.44,-0.192 0.76,-0.192 0.264,0 0.504,0.024 0.848,0.08 z"
       id="text2-9"
       style="font-weight:bold;font-size:8px;font-family:'Nimbus Mono PS';-inkscape-font-specification:'Nimbus Mono PS Bold';text-align:center;text-anchor:middle;fill:#1d526b;stroke:#a8cdd7;stroke-width:0.1;stroke-linecap:square;stroke-linejoin:round;stroke-dasharray:none;stroke-opacity:1;paint-order:normal"
       inkscape:label="sea"
       aria-label="sea" />
  </g>
</svg>
